<svg width="36" height="36" viewBox="0 0 36 36" fill="none" xmlns="http://www.w3.org/2000/svg">
<circle cx="18" cy="18" r="18" fill="#F7CA44"/>
<path d="M11.835 10.1667C11.9 11.1308 12.0625 12.0733 12.3225 12.9725L11.0225 14.2725C10.5783 12.9725 10.2967 11.5967 10.1992 10.1667H11.835ZM22.5167 23.1883C23.4375 23.4483 24.38 23.6108 25.3333 23.6758V25.29C23.9033 25.1925 22.5275 24.9108 21.2167 24.4775L22.5167 23.1883ZM12.875 8H9.08333C8.4875 8 8 8.4875 8 9.08333C8 19.2558 16.2442 27.5 26.4167 27.5C27.0125 27.5 27.5 27.0125 27.5 26.4167V22.6358C27.5 22.04 27.0125 21.5525 26.4167 21.5525C25.0733 21.5525 23.7625 21.3358 22.5492 20.935C22.4408 20.8917 22.3217 20.8808 22.2133 20.8808C21.9317 20.8808 21.6608 20.9892 21.4442 21.195L19.0608 23.5783C15.995 22.0075 13.4817 19.505 11.9217 16.4392L14.305 14.0558C14.6083 13.7525 14.695 13.33 14.5758 12.9508C14.175 11.7375 13.9583 10.4375 13.9583 9.08333C13.9583 8.4875 13.4708 8 12.875 8Z" fill="white"/>
</svg>
