<svg width="316" height="59" viewBox="0 0 316 59" fill="none" xmlns="http://www.w3.org/2000/svg">
<path d="M37.1767 6.70029C37.0308 6.4412 36.2364 5.081 34.5178 4.59521C32.8316 4.10942 31.4698 4.80572 31.1941 4.95145C31.1455 4.98384 31.0969 5.00003 31.0482 5.03242C31.4049 4.49805 31.9237 3.85034 32.6371 3.18643C32.6371 3.18643 33.7071 2.18247 35.0042 1.46998C40.4031 -1.50952 47.1153 0.190738 50.4714 5.21054C50.4551 5.21054 50.4551 5.22673 50.4389 5.22673C56.9079 16.7723 63.3769 28.3016 69.8458 39.8472C65.0792 39.831 60.3126 39.8148 55.546 39.7986C53.6491 36.3819 51.7522 32.9652 49.8553 29.5485C48.5096 27.1195 47.1639 24.7068 45.8182 22.2779L37.1767 6.70029Z" fill="url(#paint0_linear)"/>
<path d="M31.0801 4.99975L31.1449 4.96736C33.285 3.78528 35.9764 4.56254 37.1761 6.70001C38.2138 8.57838 39.2514 10.4406 40.289 12.3189C37.0627 17.6302 33.8201 22.9253 30.5937 28.2366C28.3725 24.2207 26.1351 20.2049 23.9139 16.2052C26.2972 12.4647 28.6968 8.74031 31.0801 4.99975Z" fill="#3D6ADE"/>
<path d="M32.6691 52.2997C32.815 52.5588 33.6095 53.919 35.328 54.4048C37.0142 54.8906 38.3761 54.1943 38.6517 54.0486C38.7003 54.0162 38.749 54 38.7976 53.9676C38.4409 54.502 37.9221 55.1497 37.2088 55.8136C37.2088 55.8136 36.1387 56.8175 34.8417 57.53C29.4427 60.5095 22.7306 58.8093 19.3745 53.7895C19.3907 53.7895 19.3907 53.7733 19.4069 53.7733C12.9379 42.2277 6.46897 30.6984 0 19.1528C4.76661 19.169 9.53323 19.1852 14.2998 19.2014C16.1968 22.6181 18.0937 26.0348 19.9906 29.4515C21.3363 31.8805 22.6819 34.2932 24.0276 36.7221L32.6691 52.2997Z" fill="url(#paint1_linear)"/>
<path d="M38.7651 53.9998L38.7003 54.0322C36.5601 55.2142 33.8688 54.437 32.669 52.2995C31.6314 50.4211 30.5938 48.559 29.5562 46.6806C32.7825 41.3693 36.0251 36.058 39.2515 30.7629C41.4727 34.7788 43.7101 38.7946 45.9312 42.7943C43.5479 46.5348 41.1484 50.2592 38.7651 53.9998Z" fill="#3D6ADE"/>
<path d="M86.3912 28.6721L91.8782 18.5389V28.6721H95.5731V13.4059H91.3915L85.9045 23.5391V13.4059H82.2096V28.6721H86.3912ZM111.661 28.6721V13.4059H107.966V19.3354H102.369V13.4059H98.6737V28.6721H102.369V22.455H107.966V28.6721H111.661ZM126.409 16.5255V13.4059H113.643V16.5255H118.178V28.6721H121.873V16.5255H126.409ZM139.422 28.6721V25.641H132.099V22.3444H137.542V19.3796H132.099V16.437H139.334V13.4059H128.404V28.6721H139.422ZM154.32 18.6053C154.32 15.3529 152.638 13.4059 149.032 13.4059H141.93V28.6721H145.625V23.6719H149.032C152.638 23.6719 154.32 21.8355 154.32 18.6053ZM150.514 18.9593C150.514 19.977 149.873 20.5965 148.611 20.5965H145.625V16.4813H148.611C149.895 16.4813 150.514 17.1229 150.514 18.207V18.9593ZM169.458 28.6721V13.4059H165.763V19.3354H160.166V13.4059H156.471V28.6721H160.166V22.455H165.763V28.6721H169.458ZM183.564 28.6721V25.641H176.241V22.3444H181.684V19.3796H176.241V16.437H183.476V13.4059H172.546V28.6721H183.564ZM197.731 16.5255V13.4059H184.965V16.5255H189.501V28.6721H193.196V16.5255H197.731ZM217.648 18.6053C217.648 15.3529 215.967 13.4059 212.36 13.4059H205.258V28.6721H208.953V23.6719H212.36C215.967 23.6719 217.648 21.8355 217.648 18.6053ZM213.843 18.9593C213.843 19.977 213.201 20.5965 211.94 20.5965H208.953V16.4813H211.94C213.223 16.4813 213.843 17.1229 213.843 18.207V18.9593ZM230.817 28.6721V25.641H223.494V22.3444H228.937V19.3796H223.494V16.437H230.729V13.4059H219.799V28.6721H230.817ZM249.011 13.4059V25.5525H244.874V13.4059H241.157V25.5525H237.02V13.4059H233.325V28.6721H252.706V13.4059H249.011ZM266.814 28.6721V25.641H259.49V22.3444H264.933V19.3796H259.49V16.437H266.725V13.4059H255.795V28.6721H266.814ZM282.308 28.6721V13.4059H278.613V19.3354H273.016V13.4059H269.321V28.6721H273.016V22.455H278.613V28.6721H282.308ZM289.578 28.6721L295.065 18.5389V28.6721H298.76V13.4059H294.578L289.091 23.5391V13.4059H285.396V28.6721H289.578ZM301.528 18.4061C301.528 20.508 302.413 22.0346 304.095 22.809L301.196 28.6721H305.09L307.701 23.3843H310.113V28.6721H313.83V13.4059H307.082C303.542 13.4059 301.528 15.3308 301.528 18.4061ZM305.356 18.0521C305.356 16.9459 306.086 16.3928 307.325 16.3928H310.113V20.4195H307.325C306.064 20.4195 305.356 19.8 305.356 18.6716V18.0521Z" fill="white"/>
<path d="M94.4701 42.5314L91.9368 50.1646H92.8771L93.5962 47.9852H96.9039L97.6782 50.1646H98.6739L95.9746 42.5314H94.4701ZM95.2002 43.162L96.6162 47.1777H93.8617L95.2002 43.162ZM99.7991 42.5314V50.1646H100.795V43.3279H104.136V42.5314H99.7991ZM110.098 50.1646V49.3681H106.326V46.6909H109.269V45.8944H106.326V43.3279H110.01V42.5314H105.33V50.1646H110.098ZM117.193 50.1646V42.5314H116.197V45.8944H112.624V42.5314H111.629V50.1646H112.624V46.6909H116.197V50.1646H117.193ZM124.27 43.3279V42.5314H118.385V43.3279H120.829V50.1646H121.825V43.3279H124.27ZM128.061 50.2752C129.787 50.2752 130.761 49.5893 131.015 47.9963H129.975C129.776 49.1026 129.145 49.4787 128.061 49.4787C126.546 49.4787 125.915 48.4056 125.915 46.6909V45.9829C125.915 44.2351 126.59 43.2173 128.061 43.2173C129.212 43.2173 129.798 43.7041 129.964 44.755H131.004C130.761 43.1399 129.909 42.4208 128.061 42.4208C125.904 42.4208 124.875 43.8368 124.875 46.348C124.875 48.8592 125.904 50.2752 128.061 50.2752ZM137.666 43.3279V42.5314H131.781V43.3279H134.225V50.1646H135.221V43.3279H137.666ZM144.251 48.0406C144.251 46.9564 143.687 46.3812 142.824 46.1821C143.576 45.9276 143.974 45.2971 143.974 44.4342C143.974 43.1509 143.189 42.5314 141.718 42.5314H138.863V50.1646H141.895C143.465 50.1646 144.251 49.4455 144.251 48.0406ZM143.222 47.7529V48.2286C143.222 49.003 142.724 49.3681 141.806 49.3681H139.859V46.6467H141.806C142.835 46.6467 143.222 47.0781 143.222 47.7529ZM142.934 44.3457V44.7661C142.934 45.5072 142.514 45.8944 141.729 45.8944H139.859V43.3279H141.729C142.503 43.3279 142.934 43.6709 142.934 44.3457ZM152.039 46.348C152.039 43.7373 150.977 42.4208 148.709 42.4208C146.442 42.4208 145.391 43.7373 145.391 46.348C145.391 48.9477 146.442 50.2752 148.709 50.2752C150.977 50.2752 152.039 48.9477 152.039 46.348ZM150.999 46.6909C150.999 48.472 150.302 49.4787 148.709 49.4787C147.116 49.4787 146.43 48.472 146.43 46.6909V45.9829C146.43 44.2129 147.116 43.2173 148.709 43.2173C150.302 43.2173 150.999 44.2129 150.999 45.9829V46.6909ZM161.42 44.8988C161.42 43.4386 160.646 42.5314 158.942 42.5314H156.375V50.1646H157.371V47.2109H158.942C160.646 47.2109 161.42 46.3369 161.42 44.8988ZM160.38 45.1311C160.38 45.9276 159.904 46.3701 158.876 46.3701H157.371V43.3722H158.876C159.904 43.3722 160.38 43.8147 160.38 44.6554V45.1311ZM167.604 50.1646V49.3681H163.831V46.6909H166.774V45.8944H163.831V43.3279H167.515V42.5314H162.836V50.1646H167.604ZM174.179 44.8546C174.179 43.4164 173.471 42.5314 171.701 42.5314H169.134V50.1646H170.13V47.1224H171.689L173.338 50.1646H174.488L172.751 46.9896C173.758 46.702 174.179 45.9387 174.179 44.8546ZM173.139 45.0758C173.139 45.8502 172.663 46.2816 171.634 46.2816H170.13V43.3722H171.634C172.663 43.3722 173.139 43.8036 173.139 44.6001V45.0758ZM176.892 50.1646V46.7905H179.802V45.9829H176.892V43.3279H180.466V42.5314H175.897V50.1646H176.892ZM188.122 46.348C188.122 43.7373 187.06 42.4208 184.792 42.4208C182.524 42.4208 181.473 43.7373 181.473 46.348C181.473 48.9477 182.524 50.2752 184.792 50.2752C187.06 50.2752 188.122 48.9477 188.122 46.348ZM187.082 46.6909C187.082 48.472 186.385 49.4787 184.792 49.4787C183.199 49.4787 182.513 48.472 182.513 46.6909V45.9829C182.513 44.2129 183.199 43.2173 184.792 43.2173C186.385 43.2173 187.082 44.2129 187.082 45.9829V46.6909ZM194.737 44.8546C194.737 43.4164 194.029 42.5314 192.259 42.5314H189.693V50.1646H190.688V47.1224H192.248L193.896 50.1646H195.047L193.31 46.9896C194.317 46.702 194.737 45.9387 194.737 44.8546ZM193.697 45.0758C193.697 45.8502 193.221 46.2816 192.193 46.2816H190.688V43.3722H192.193C193.221 43.3722 193.697 43.8036 193.697 44.6001V45.0758ZM198.093 42.5314H196.455V50.1646H197.396V43.3501L199.52 48.9477H200.737L202.872 43.3501V50.1646H203.867V42.5314H202.296L200.183 48.0627L198.093 42.5314ZM207.526 42.5314L204.992 50.1646H205.933L206.652 47.9852H209.959L210.734 50.1646H211.729L209.03 42.5314H207.526ZM208.256 43.162L209.672 47.1777H206.917L208.256 43.162ZM214.16 42.5314H212.855V50.1646H213.806V43.8811L217.169 50.1646H218.485V42.5314H217.534V48.8481L214.16 42.5314ZM223.237 50.2752C224.963 50.2752 225.937 49.5893 226.191 47.9963H225.151C224.952 49.1026 224.322 49.4787 223.237 49.4787C221.722 49.4787 221.091 48.4056 221.091 46.6909V45.9829C221.091 44.2351 221.766 43.2173 223.237 43.2173C224.388 43.2173 224.974 43.7041 225.14 44.755H226.18C225.937 43.1399 225.085 42.4208 223.237 42.4208C221.08 42.4208 220.052 43.8368 220.052 46.348C220.052 48.8592 221.08 50.2752 223.237 50.2752ZM232.477 50.1646V49.3681H228.705V46.6909H231.647V45.8944H228.705V43.3279H232.388V42.5314H227.709V50.1646H232.477ZM238.41 42.5314H236.773V50.1646H237.713V43.3501L239.837 48.9477H241.054L243.189 43.3501V50.1646H244.185V42.5314H242.614L240.501 48.0627L238.41 42.5314ZM247.843 42.5314L245.31 50.1646H246.25L246.969 47.9852H250.277L251.051 50.1646H252.047L249.348 42.5314H247.843ZM248.573 43.162L249.989 47.1777H247.235L248.573 43.162ZM258.217 44.8988C258.217 43.4386 257.442 42.5314 255.739 42.5314H253.172V50.1646H254.168V47.2109H255.739C257.442 47.2109 258.217 46.3369 258.217 44.8988ZM257.177 45.1311C257.177 45.9276 256.701 46.3701 255.672 46.3701H254.168V43.3722H255.672C256.701 43.3722 257.177 43.8147 257.177 44.6554V45.1311ZM260.628 42.5314H259.632V50.1646H260.628V46.7573H261.391L264.035 50.1646H265.252L262.232 46.2816L265.009 42.5314H263.88L261.391 45.9166H260.628V42.5314ZM271.228 50.1646V49.3681H267.456V46.6909H270.398V45.8944H267.456V43.3279H271.139V42.5314H266.46V50.1646H271.228ZM277.891 43.3279V42.5314H272.006V43.3279H274.451V50.1646H275.447V43.3279H277.891ZM280.24 50.1646L283.768 43.8036V50.1646H284.764V42.5314H283.602L280.085 48.8924V42.5314H279.089V50.1646H280.24ZM292.28 50.1646V42.5314H291.285V45.8944H287.712V42.5314H286.716V50.1646H287.712V46.6909H291.285V50.1646H292.28ZM294.224 42.5314V50.1646H295.22V43.3279H298.561V42.5314H294.224ZM300.509 42.5314L297.975 50.1646H298.916L299.635 47.9852H302.942L303.717 50.1646H304.712L302.013 42.5314H300.509ZM301.239 43.162L302.655 47.1777H299.9L301.239 43.162Z" fill="white"/>
<defs>
<linearGradient id="paint0_linear" x1="50.447" y1="0" x2="50.447" y2="39.8472" gradientUnits="userSpaceOnUse">
<stop stop-color="#3E4BDD"/>
<stop offset="1" stop-color="#3D6ADE"/>
</linearGradient>
<linearGradient id="paint1_linear" x1="19.3988" y1="19.1528" x2="19.3988" y2="59" gradientUnits="userSpaceOnUse">
<stop stop-color="#3D6ADE"/>
<stop offset="1" stop-color="#3E4BDD"/>
</linearGradient>
</defs>
</svg>
