<svg width="93" height="80" viewBox="0 0 93 80" fill="none" xmlns="http://www.w3.org/2000/svg">
<g filter="url(#filter0_d)">
<mask id="path-1-outside-1" maskUnits="userSpaceOnUse" x="4" y="51" width="85" height="21" fill="black">
<rect fill="white" x="4" y="51" width="85" height="21"/>
<path d="M14.4196 69.6675C14.4196 70.2198 13.9719 70.6675 13.4196 70.6675H13.2966C12.7443 70.6675 12.2966 70.2198 12.2966 69.6675V67.1454C12.2966 66.4908 11.6766 66.0127 11.0285 66.1047C10.4404 66.1882 9.83138 66.2299 9.2014 66.2299C7.89032 66.2299 6.86232 65.8439 6.11739 65.0718C5.37246 64.2997 5 63.176 5 61.7007V59.3868C5 58.8346 5.44772 58.3868 6 58.3868H6.12305C6.67533 58.3868 7.12305 58.8346 7.12305 59.3868V61.6548C7.12305 62.5645 7.34653 63.2563 7.79348 63.7302C8.24789 64.2042 8.90343 64.4412 9.7601 64.4412C10.3502 64.4412 10.9385 64.3976 11.5251 64.3106C11.9909 64.2414 12.3189 63.8298 12.3189 63.3589V59.3868C12.3189 58.8346 12.7666 58.3868 13.3189 58.3868H13.4196C13.9719 58.3868 14.4196 58.8346 14.4196 59.3868V69.6675Z"/>
<path d="M24.9343 70.4496C24.415 70.0911 23.5117 69.9142 22.968 70.2346C22.2187 70.6761 21.2949 70.8968 20.1966 70.8968C19.2505 70.8968 18.4348 70.5452 17.7495 69.8419C17.0641 69.1386 16.7215 68.271 16.7215 67.239C16.7215 65.993 17.2466 64.9419 18.297 64.0857C19.3548 63.2295 20.7106 62.8014 22.3643 62.8014C22.4306 62.8014 22.4981 62.8034 22.5669 62.8073C23.2433 62.8457 23.9286 62.3702 23.7281 61.7231C23.3918 60.6379 22.5796 60.0954 21.2916 60.0954C20.5312 60.0954 19.8671 60.2215 19.2993 60.4738C18.7149 60.7335 17.9357 60.6113 17.6527 60.0378V60.0378C17.4659 59.6592 17.556 59.1967 17.9249 58.9916C18.2129 58.8315 18.5567 58.6796 18.9562 58.5359C19.6863 58.276 20.3902 58.146 21.0681 58.146C22.7517 58.146 23.9957 58.5397 24.8002 59.3271C25.6047 60.1145 26.007 61.4216 26.007 63.2486V67.6403C26.007 68.5186 26.2147 69.1583 26.6302 69.5595C26.8061 69.7293 26.9456 69.9468 26.9456 70.1912V70.1912C26.9456 70.5682 26.639 70.8797 26.2637 70.844C25.6839 70.7888 25.2408 70.6574 24.9343 70.4496V70.4496ZM23.9063 65.4469C23.9063 64.9743 23.576 64.5619 23.1109 64.4781C22.8043 64.4229 22.5964 64.3953 22.4872 64.3953C21.4145 64.3953 20.5392 64.682 19.8613 65.2553C19.1834 65.8286 18.8445 66.4975 18.8445 67.2619C18.8445 68.5462 19.5783 69.1883 21.0458 69.1883C22.0016 69.1883 22.8773 68.7546 23.6727 67.8873C23.8287 67.7172 23.9063 67.4913 23.9063 67.2605V65.4469Z"/>
<path d="M39.2705 69.6675C39.2705 70.2198 38.8227 70.6675 38.2705 70.6675H38.1474C37.5951 70.6675 37.1474 70.2198 37.1474 69.6675V64.9727C37.1474 64.0435 35.9906 63.6166 35.3871 64.3231L29.7817 70.8847C29.7192 70.9579 29.6278 71 29.5316 71V71C29.35 71 29.2027 70.8528 29.2027 70.6711V59.3868C29.2027 58.8346 29.6505 58.3868 30.2027 58.3868H30.337C30.8893 58.3868 31.337 58.8346 31.337 59.3868V64.0785C31.337 65.0081 32.4945 65.4348 33.0978 64.7275L38.6915 58.1697C38.754 58.0965 38.8454 58.0543 38.9417 58.0543V58.0543C39.1233 58.0543 39.2705 58.2015 39.2705 58.3831V69.6675ZM37.6028 52.2475C38.0761 52.3585 38.3821 52.8313 38.222 53.2904C37.5998 55.0751 36.3402 55.9674 34.4433 55.9674C32.5739 55.9674 31.325 55.0948 30.6965 53.3495C30.5201 52.8594 30.8484 52.3518 31.3554 52.2324V52.2324C31.8913 52.1063 32.405 52.4658 32.6083 52.9774C32.9719 53.8929 33.5836 54.3506 34.4433 54.3506C35.4101 54.3506 36.0671 53.8931 36.4145 52.978C36.6017 52.4849 37.0892 52.1271 37.6028 52.2475V52.2475Z"/>
<path d="M51.0607 69.0809C51.5396 69.7421 51.0672 70.6675 50.2508 70.6675H50.115C49.7768 70.6675 49.4615 70.4966 49.277 70.2132L47.3616 67.2721C46.964 66.6615 46.0678 66.6675 45.6784 67.2834L43.8333 70.2019C43.65 70.4917 43.331 70.6675 42.988 70.6675H42.9444C42.1334 70.6675 41.6597 69.7529 42.1277 69.0905L45.0605 64.9391C45.3012 64.5983 45.3051 64.1438 45.0701 63.799L42.4474 59.9499C41.9951 59.2861 42.4705 58.3868 43.2738 58.3868H43.3177C43.6637 58.3868 43.9851 58.5657 44.1675 58.8597L45.73 61.3784C46.1152 61.9994 47.0146 62.0109 47.4157 61.4001L49.1075 58.8233C49.2863 58.5509 49.5903 58.3868 49.9161 58.3868V58.3868C50.703 58.3868 51.1606 59.2764 50.7031 59.9166L48.0023 63.6953C47.7523 64.0449 47.7538 64.5152 48.0059 64.8633L51.0607 69.0809Z"/>
<path d="M61.4284 70.4496C60.9091 70.0911 60.0058 69.9142 59.4621 70.2346C58.7127 70.6761 57.7889 70.8968 56.6906 70.8968C55.7446 70.8968 54.9289 70.5452 54.2435 69.8419C53.5582 69.1386 53.2155 68.271 53.2155 67.239C53.2155 65.993 53.7407 64.9419 54.7911 64.0857C55.8489 63.2295 57.2046 62.8014 58.8584 62.8014C58.9246 62.8014 58.9922 62.8034 59.061 62.8073C59.7373 62.8457 60.4227 62.3702 60.2221 61.7231C59.8859 60.6379 59.0737 60.0954 57.7857 60.0954C57.0253 60.0954 56.3612 60.2215 55.7934 60.4738C55.209 60.7335 54.4298 60.6112 54.1468 60.0378V60.0378C53.96 59.6592 54.0501 59.1967 54.419 58.9916C54.707 58.8315 55.0507 58.6796 55.4503 58.5359C56.1804 58.276 56.8843 58.146 57.5622 58.146C59.2457 58.146 60.4898 58.5397 61.2943 59.3271C62.0988 60.1145 62.5011 61.4216 62.5011 63.2486V67.6403C62.5011 68.5186 62.7088 69.1583 63.1243 69.5595C63.3002 69.7293 63.4397 69.9468 63.4397 70.1912V70.1912C63.4397 70.5682 63.1331 70.8797 62.7578 70.844C62.178 70.7888 61.7348 70.6574 61.4284 70.4496V70.4496ZM60.4004 65.4469C60.4004 64.9743 60.0701 64.5619 59.605 64.4781C59.2984 64.4229 59.0905 64.3953 58.9813 64.3953C57.9086 64.3953 57.0333 64.682 56.3554 65.2553C55.6775 65.8286 55.3386 66.4975 55.3386 67.2619C55.3386 68.5462 56.0723 69.1883 57.5398 69.1883C58.4957 69.1883 59.3714 68.7546 60.1668 67.8873C60.3228 67.7172 60.4004 67.4913 60.4004 67.2605V65.4469Z"/>
<path d="M75.474 69.6675C75.474 70.2198 75.0263 70.6675 74.474 70.6675H74.3398C73.7875 70.6675 73.3398 70.2198 73.3398 69.6675V66.1291C73.3398 65.5769 72.8921 65.1291 72.3398 65.1291H68.831C68.2788 65.1291 67.831 65.5769 67.831 66.1291V69.6675C67.831 70.2198 67.3833 70.6675 66.831 70.6675H66.6968C66.1445 70.6675 65.6968 70.2198 65.6968 69.6675V59.3868C65.6968 58.8346 66.1445 58.3868 66.6968 58.3868H66.831C67.3833 58.3868 67.831 58.8346 67.831 59.3868V62.3174C67.831 62.8697 68.2788 63.3174 68.831 63.3174H72.3398C72.8921 63.3174 73.3398 62.8697 73.3398 62.3174V59.3868C73.3398 58.8346 73.7875 58.3868 74.3398 58.3868H74.474C75.0263 58.3868 75.474 58.8346 75.474 59.3868V69.6675Z"/>
<path d="M85.9887 70.4496C85.4694 70.0911 84.5661 69.9142 84.0224 70.2346C83.2731 70.6761 82.3492 70.8968 81.2509 70.8968C80.3049 70.8968 79.4892 70.5452 78.8038 69.8419C78.1185 69.1386 77.7758 68.271 77.7758 67.239C77.7758 65.993 78.301 64.9419 79.3514 64.0857C80.4092 63.2295 81.7649 62.8014 83.4187 62.8014C83.485 62.8014 83.5525 62.8034 83.6213 62.8073C84.2976 62.8457 84.983 62.3702 84.7825 61.7231C84.4462 60.6379 83.634 60.0954 82.346 60.0954C81.5856 60.0954 80.9215 60.2215 80.3537 60.4738C79.7693 60.7335 78.9901 60.6112 78.7071 60.0378V60.0378C78.5203 59.6592 78.6104 59.1967 78.9793 58.9916C79.2673 58.8315 79.6111 58.6796 80.0106 58.5359C80.7407 58.276 81.4446 58.146 82.1225 58.146C83.806 58.146 85.0501 58.5397 85.8546 59.3271C86.6591 60.1145 87.0614 61.4216 87.0614 63.2486V67.6403C87.0614 68.5186 87.2691 69.1583 87.6846 69.5595C87.8605 69.7293 88 69.9468 88 70.1912V70.1912C88 70.5682 87.6934 70.8797 87.3181 70.844C86.7383 70.7888 86.2951 70.6574 85.9887 70.4496V70.4496ZM84.9607 65.4469C84.9607 64.9743 84.6304 64.5619 84.1653 64.4781C83.8587 64.4229 83.6508 64.3953 83.5416 64.3953C82.4689 64.3953 81.5936 64.682 80.9157 65.2553C80.2378 65.8286 79.8989 66.4975 79.8989 67.2619C79.8989 68.5462 80.6326 69.1883 82.1002 69.1883C83.056 69.1883 83.9317 68.7546 84.7271 67.8873C84.8831 67.7172 84.9607 67.4913 84.9607 67.2605V65.4469Z"/>
</mask>
<path d="M14.4196 69.6675C14.4196 70.2198 13.9719 70.6675 13.4196 70.6675H13.2966C12.7443 70.6675 12.2966 70.2198 12.2966 69.6675V67.1454C12.2966 66.4908 11.6766 66.0127 11.0285 66.1047C10.4404 66.1882 9.83138 66.2299 9.2014 66.2299C7.89032 66.2299 6.86232 65.8439 6.11739 65.0718C5.37246 64.2997 5 63.176 5 61.7007V59.3868C5 58.8346 5.44772 58.3868 6 58.3868H6.12305C6.67533 58.3868 7.12305 58.8346 7.12305 59.3868V61.6548C7.12305 62.5645 7.34653 63.2563 7.79348 63.7302C8.24789 64.2042 8.90343 64.4412 9.7601 64.4412C10.3502 64.4412 10.9385 64.3976 11.5251 64.3106C11.9909 64.2414 12.3189 63.8298 12.3189 63.3589V59.3868C12.3189 58.8346 12.7666 58.3868 13.3189 58.3868H13.4196C13.9719 58.3868 14.4196 58.8346 14.4196 59.3868V69.6675Z" fill="#FFB9C6"/>
<path d="M24.9343 70.4496C24.415 70.0911 23.5117 69.9142 22.968 70.2346C22.2187 70.6761 21.2949 70.8968 20.1966 70.8968C19.2505 70.8968 18.4348 70.5452 17.7495 69.8419C17.0641 69.1386 16.7215 68.271 16.7215 67.239C16.7215 65.993 17.2466 64.9419 18.297 64.0857C19.3548 63.2295 20.7106 62.8014 22.3643 62.8014C22.4306 62.8014 22.4981 62.8034 22.5669 62.8073C23.2433 62.8457 23.9286 62.3702 23.7281 61.7231C23.3918 60.6379 22.5796 60.0954 21.2916 60.0954C20.5312 60.0954 19.8671 60.2215 19.2993 60.4738C18.7149 60.7335 17.9357 60.6113 17.6527 60.0378V60.0378C17.4659 59.6592 17.556 59.1967 17.9249 58.9916C18.2129 58.8315 18.5567 58.6796 18.9562 58.5359C19.6863 58.276 20.3902 58.146 21.0681 58.146C22.7517 58.146 23.9957 58.5397 24.8002 59.3271C25.6047 60.1145 26.007 61.4216 26.007 63.2486V67.6403C26.007 68.5186 26.2147 69.1583 26.6302 69.5595C26.8061 69.7293 26.9456 69.9468 26.9456 70.1912V70.1912C26.9456 70.5682 26.639 70.8797 26.2637 70.844C25.6839 70.7888 25.2408 70.6574 24.9343 70.4496V70.4496ZM23.9063 65.4469C23.9063 64.9743 23.576 64.5619 23.1109 64.4781C22.8043 64.4229 22.5964 64.3953 22.4872 64.3953C21.4145 64.3953 20.5392 64.682 19.8613 65.2553C19.1834 65.8286 18.8445 66.4975 18.8445 67.2619C18.8445 68.5462 19.5783 69.1883 21.0458 69.1883C22.0016 69.1883 22.8773 68.7546 23.6727 67.8873C23.8287 67.7172 23.9063 67.4913 23.9063 67.2605V65.4469Z" fill="#FFB9C6"/>
<path d="M39.2705 69.6675C39.2705 70.2198 38.8227 70.6675 38.2705 70.6675H38.1474C37.5951 70.6675 37.1474 70.2198 37.1474 69.6675V64.9727C37.1474 64.0435 35.9906 63.6166 35.3871 64.3231L29.7817 70.8847C29.7192 70.9579 29.6278 71 29.5316 71V71C29.35 71 29.2027 70.8528 29.2027 70.6711V59.3868C29.2027 58.8346 29.6505 58.3868 30.2027 58.3868H30.337C30.8893 58.3868 31.337 58.8346 31.337 59.3868V64.0785C31.337 65.0081 32.4945 65.4348 33.0978 64.7275L38.6915 58.1697C38.754 58.0965 38.8454 58.0543 38.9417 58.0543V58.0543C39.1233 58.0543 39.2705 58.2015 39.2705 58.3831V69.6675ZM37.6028 52.2475C38.0761 52.3585 38.3821 52.8313 38.222 53.2904C37.5998 55.0751 36.3402 55.9674 34.4433 55.9674C32.5739 55.9674 31.325 55.0948 30.6965 53.3495C30.5201 52.8594 30.8484 52.3518 31.3554 52.2324V52.2324C31.8913 52.1063 32.405 52.4658 32.6083 52.9774C32.9719 53.8929 33.5836 54.3506 34.4433 54.3506C35.4101 54.3506 36.0671 53.8931 36.4145 52.978C36.6017 52.4849 37.0892 52.1271 37.6028 52.2475V52.2475Z" fill="#FFB9C6"/>
<path d="M51.0607 69.0809C51.5396 69.7421 51.0672 70.6675 50.2508 70.6675H50.115C49.7768 70.6675 49.4615 70.4966 49.277 70.2132L47.3616 67.2721C46.964 66.6615 46.0678 66.6675 45.6784 67.2834L43.8333 70.2019C43.65 70.4917 43.331 70.6675 42.988 70.6675H42.9444C42.1334 70.6675 41.6597 69.7529 42.1277 69.0905L45.0605 64.9391C45.3012 64.5983 45.3051 64.1438 45.0701 63.799L42.4474 59.9499C41.9951 59.2861 42.4705 58.3868 43.2738 58.3868H43.3177C43.6637 58.3868 43.9851 58.5657 44.1675 58.8597L45.73 61.3784C46.1152 61.9994 47.0146 62.0109 47.4157 61.4001L49.1075 58.8233C49.2863 58.5509 49.5903 58.3868 49.9161 58.3868V58.3868C50.703 58.3868 51.1606 59.2764 50.7031 59.9166L48.0023 63.6953C47.7523 64.0449 47.7538 64.5152 48.0059 64.8633L51.0607 69.0809Z" fill="#FFB9C6"/>
<path d="M61.4284 70.4496C60.9091 70.0911 60.0058 69.9142 59.4621 70.2346C58.7127 70.6761 57.7889 70.8968 56.6906 70.8968C55.7446 70.8968 54.9289 70.5452 54.2435 69.8419C53.5582 69.1386 53.2155 68.271 53.2155 67.239C53.2155 65.993 53.7407 64.9419 54.7911 64.0857C55.8489 63.2295 57.2046 62.8014 58.8584 62.8014C58.9246 62.8014 58.9922 62.8034 59.061 62.8073C59.7373 62.8457 60.4227 62.3702 60.2221 61.7231C59.8859 60.6379 59.0737 60.0954 57.7857 60.0954C57.0253 60.0954 56.3612 60.2215 55.7934 60.4738C55.209 60.7335 54.4298 60.6112 54.1468 60.0378V60.0378C53.96 59.6592 54.0501 59.1967 54.419 58.9916C54.707 58.8315 55.0507 58.6796 55.4503 58.5359C56.1804 58.276 56.8843 58.146 57.5622 58.146C59.2457 58.146 60.4898 58.5397 61.2943 59.3271C62.0988 60.1145 62.5011 61.4216 62.5011 63.2486V67.6403C62.5011 68.5186 62.7088 69.1583 63.1243 69.5595C63.3002 69.7293 63.4397 69.9468 63.4397 70.1912V70.1912C63.4397 70.5682 63.1331 70.8797 62.7578 70.844C62.178 70.7888 61.7348 70.6574 61.4284 70.4496V70.4496ZM60.4004 65.4469C60.4004 64.9743 60.0701 64.5619 59.605 64.4781C59.2984 64.4229 59.0905 64.3953 58.9813 64.3953C57.9086 64.3953 57.0333 64.682 56.3554 65.2553C55.6775 65.8286 55.3386 66.4975 55.3386 67.2619C55.3386 68.5462 56.0723 69.1883 57.5398 69.1883C58.4957 69.1883 59.3714 68.7546 60.1668 67.8873C60.3228 67.7172 60.4004 67.4913 60.4004 67.2605V65.4469Z" fill="#FFB9C6"/>
<path d="M75.474 69.6675C75.474 70.2198 75.0263 70.6675 74.474 70.6675H74.3398C73.7875 70.6675 73.3398 70.2198 73.3398 69.6675V66.1291C73.3398 65.5769 72.8921 65.1291 72.3398 65.1291H68.831C68.2788 65.1291 67.831 65.5769 67.831 66.1291V69.6675C67.831 70.2198 67.3833 70.6675 66.831 70.6675H66.6968C66.1445 70.6675 65.6968 70.2198 65.6968 69.6675V59.3868C65.6968 58.8346 66.1445 58.3868 66.6968 58.3868H66.831C67.3833 58.3868 67.831 58.8346 67.831 59.3868V62.3174C67.831 62.8697 68.2788 63.3174 68.831 63.3174H72.3398C72.8921 63.3174 73.3398 62.8697 73.3398 62.3174V59.3868C73.3398 58.8346 73.7875 58.3868 74.3398 58.3868H74.474C75.0263 58.3868 75.474 58.8346 75.474 59.3868V69.6675Z" fill="#FFB9C6"/>
<path d="M85.9887 70.4496C85.4694 70.0911 84.5661 69.9142 84.0224 70.2346C83.2731 70.6761 82.3492 70.8968 81.2509 70.8968C80.3049 70.8968 79.4892 70.5452 78.8038 69.8419C78.1185 69.1386 77.7758 68.271 77.7758 67.239C77.7758 65.993 78.301 64.9419 79.3514 64.0857C80.4092 63.2295 81.7649 62.8014 83.4187 62.8014C83.485 62.8014 83.5525 62.8034 83.6213 62.8073C84.2976 62.8457 84.983 62.3702 84.7825 61.7231C84.4462 60.6379 83.634 60.0954 82.346 60.0954C81.5856 60.0954 80.9215 60.2215 80.3537 60.4738C79.7693 60.7335 78.9901 60.6112 78.7071 60.0378V60.0378C78.5203 59.6592 78.6104 59.1967 78.9793 58.9916C79.2673 58.8315 79.6111 58.6796 80.0106 58.5359C80.7407 58.276 81.4446 58.146 82.1225 58.146C83.806 58.146 85.0501 58.5397 85.8546 59.3271C86.6591 60.1145 87.0614 61.4216 87.0614 63.2486V67.6403C87.0614 68.5186 87.2691 69.1583 87.6846 69.5595C87.8605 69.7293 88 69.9468 88 70.1912V70.1912C88 70.5682 87.6934 70.8797 87.3181 70.844C86.7383 70.7888 86.2951 70.6574 85.9887 70.4496V70.4496ZM84.9607 65.4469C84.9607 64.9743 84.6304 64.5619 84.1653 64.4781C83.8587 64.4229 83.6508 64.3953 83.5416 64.3953C82.4689 64.3953 81.5936 64.682 80.9157 65.2553C80.2378 65.8286 79.8989 66.4975 79.8989 67.2619C79.8989 68.5462 80.6326 69.1883 82.1002 69.1883C83.056 69.1883 83.9317 68.7546 84.7271 67.8873C84.8831 67.7172 84.9607 67.4913 84.9607 67.2605V65.4469Z" fill="#FFB9C6"/>
<path d="M14.4196 69.6675C14.4196 70.2198 13.9719 70.6675 13.4196 70.6675H13.2966C12.7443 70.6675 12.2966 70.2198 12.2966 69.6675V67.1454C12.2966 66.4908 11.6766 66.0127 11.0285 66.1047C10.4404 66.1882 9.83138 66.2299 9.2014 66.2299C7.89032 66.2299 6.86232 65.8439 6.11739 65.0718C5.37246 64.2997 5 63.176 5 61.7007V59.3868C5 58.8346 5.44772 58.3868 6 58.3868H6.12305C6.67533 58.3868 7.12305 58.8346 7.12305 59.3868V61.6548C7.12305 62.5645 7.34653 63.2563 7.79348 63.7302C8.24789 64.2042 8.90343 64.4412 9.7601 64.4412C10.3502 64.4412 10.9385 64.3976 11.5251 64.3106C11.9909 64.2414 12.3189 63.8298 12.3189 63.3589V59.3868C12.3189 58.8346 12.7666 58.3868 13.3189 58.3868H13.4196C13.9719 58.3868 14.4196 58.8346 14.4196 59.3868V69.6675Z" stroke="black" stroke-width="2" mask="url(#path-1-outside-1)"/>
<path d="M24.9343 70.4496C24.415 70.0911 23.5117 69.9142 22.968 70.2346C22.2187 70.6761 21.2949 70.8968 20.1966 70.8968C19.2505 70.8968 18.4348 70.5452 17.7495 69.8419C17.0641 69.1386 16.7215 68.271 16.7215 67.239C16.7215 65.993 17.2466 64.9419 18.297 64.0857C19.3548 63.2295 20.7106 62.8014 22.3643 62.8014C22.4306 62.8014 22.4981 62.8034 22.5669 62.8073C23.2433 62.8457 23.9286 62.3702 23.7281 61.7231C23.3918 60.6379 22.5796 60.0954 21.2916 60.0954C20.5312 60.0954 19.8671 60.2215 19.2993 60.4738C18.7149 60.7335 17.9357 60.6113 17.6527 60.0378V60.0378C17.4659 59.6592 17.556 59.1967 17.9249 58.9916C18.2129 58.8315 18.5567 58.6796 18.9562 58.5359C19.6863 58.276 20.3902 58.146 21.0681 58.146C22.7517 58.146 23.9957 58.5397 24.8002 59.3271C25.6047 60.1145 26.007 61.4216 26.007 63.2486V67.6403C26.007 68.5186 26.2147 69.1583 26.6302 69.5595C26.8061 69.7293 26.9456 69.9468 26.9456 70.1912V70.1912C26.9456 70.5682 26.639 70.8797 26.2637 70.844C25.6839 70.7888 25.2408 70.6574 24.9343 70.4496V70.4496ZM23.9063 65.4469C23.9063 64.9743 23.576 64.5619 23.1109 64.4781C22.8043 64.4229 22.5964 64.3953 22.4872 64.3953C21.4145 64.3953 20.5392 64.682 19.8613 65.2553C19.1834 65.8286 18.8445 66.4975 18.8445 67.2619C18.8445 68.5462 19.5783 69.1883 21.0458 69.1883C22.0016 69.1883 22.8773 68.7546 23.6727 67.8873C23.8287 67.7172 23.9063 67.4913 23.9063 67.2605V65.4469Z" stroke="black" stroke-width="2" mask="url(#path-1-outside-1)"/>
<path d="M39.2705 69.6675C39.2705 70.2198 38.8227 70.6675 38.2705 70.6675H38.1474C37.5951 70.6675 37.1474 70.2198 37.1474 69.6675V64.9727C37.1474 64.0435 35.9906 63.6166 35.3871 64.3231L29.7817 70.8847C29.7192 70.9579 29.6278 71 29.5316 71V71C29.35 71 29.2027 70.8528 29.2027 70.6711V59.3868C29.2027 58.8346 29.6505 58.3868 30.2027 58.3868H30.337C30.8893 58.3868 31.337 58.8346 31.337 59.3868V64.0785C31.337 65.0081 32.4945 65.4348 33.0978 64.7275L38.6915 58.1697C38.754 58.0965 38.8454 58.0543 38.9417 58.0543V58.0543C39.1233 58.0543 39.2705 58.2015 39.2705 58.3831V69.6675ZM37.6028 52.2475C38.0761 52.3585 38.3821 52.8313 38.222 53.2904C37.5998 55.0751 36.3402 55.9674 34.4433 55.9674C32.5739 55.9674 31.325 55.0948 30.6965 53.3495C30.5201 52.8594 30.8484 52.3518 31.3554 52.2324V52.2324C31.8913 52.1063 32.405 52.4658 32.6083 52.9774C32.9719 53.8929 33.5836 54.3506 34.4433 54.3506C35.4101 54.3506 36.0671 53.8931 36.4145 52.978C36.6017 52.4849 37.0892 52.1271 37.6028 52.2475V52.2475Z" stroke="black" stroke-width="2" mask="url(#path-1-outside-1)"/>
<path d="M51.0607 69.0809C51.5396 69.7421 51.0672 70.6675 50.2508 70.6675H50.115C49.7768 70.6675 49.4615 70.4966 49.277 70.2132L47.3616 67.2721C46.964 66.6615 46.0678 66.6675 45.6784 67.2834L43.8333 70.2019C43.65 70.4917 43.331 70.6675 42.988 70.6675H42.9444C42.1334 70.6675 41.6597 69.7529 42.1277 69.0905L45.0605 64.9391C45.3012 64.5983 45.3051 64.1438 45.0701 63.799L42.4474 59.9499C41.9951 59.2861 42.4705 58.3868 43.2738 58.3868H43.3177C43.6637 58.3868 43.9851 58.5657 44.1675 58.8597L45.73 61.3784C46.1152 61.9994 47.0146 62.0109 47.4157 61.4001L49.1075 58.8233C49.2863 58.5509 49.5903 58.3868 49.9161 58.3868V58.3868C50.703 58.3868 51.1606 59.2764 50.7031 59.9166L48.0023 63.6953C47.7523 64.0449 47.7538 64.5152 48.0059 64.8633L51.0607 69.0809Z" stroke="black" stroke-width="2" mask="url(#path-1-outside-1)"/>
<path d="M61.4284 70.4496C60.9091 70.0911 60.0058 69.9142 59.4621 70.2346C58.7127 70.6761 57.7889 70.8968 56.6906 70.8968C55.7446 70.8968 54.9289 70.5452 54.2435 69.8419C53.5582 69.1386 53.2155 68.271 53.2155 67.239C53.2155 65.993 53.7407 64.9419 54.7911 64.0857C55.8489 63.2295 57.2046 62.8014 58.8584 62.8014C58.9246 62.8014 58.9922 62.8034 59.061 62.8073C59.7373 62.8457 60.4227 62.3702 60.2221 61.7231C59.8859 60.6379 59.0737 60.0954 57.7857 60.0954C57.0253 60.0954 56.3612 60.2215 55.7934 60.4738C55.209 60.7335 54.4298 60.6112 54.1468 60.0378V60.0378C53.96 59.6592 54.0501 59.1967 54.419 58.9916C54.707 58.8315 55.0507 58.6796 55.4503 58.5359C56.1804 58.276 56.8843 58.146 57.5622 58.146C59.2457 58.146 60.4898 58.5397 61.2943 59.3271C62.0988 60.1145 62.5011 61.4216 62.5011 63.2486V67.6403C62.5011 68.5186 62.7088 69.1583 63.1243 69.5595C63.3002 69.7293 63.4397 69.9468 63.4397 70.1912V70.1912C63.4397 70.5682 63.1331 70.8797 62.7578 70.844C62.178 70.7888 61.7348 70.6574 61.4284 70.4496V70.4496ZM60.4004 65.4469C60.4004 64.9743 60.0701 64.5619 59.605 64.4781C59.2984 64.4229 59.0905 64.3953 58.9813 64.3953C57.9086 64.3953 57.0333 64.682 56.3554 65.2553C55.6775 65.8286 55.3386 66.4975 55.3386 67.2619C55.3386 68.5462 56.0723 69.1883 57.5398 69.1883C58.4957 69.1883 59.3714 68.7546 60.1668 67.8873C60.3228 67.7172 60.4004 67.4913 60.4004 67.2605V65.4469Z" stroke="black" stroke-width="2" mask="url(#path-1-outside-1)"/>
<path d="M75.474 69.6675C75.474 70.2198 75.0263 70.6675 74.474 70.6675H74.3398C73.7875 70.6675 73.3398 70.2198 73.3398 69.6675V66.1291C73.3398 65.5769 72.8921 65.1291 72.3398 65.1291H68.831C68.2788 65.1291 67.831 65.5769 67.831 66.1291V69.6675C67.831 70.2198 67.3833 70.6675 66.831 70.6675H66.6968C66.1445 70.6675 65.6968 70.2198 65.6968 69.6675V59.3868C65.6968 58.8346 66.1445 58.3868 66.6968 58.3868H66.831C67.3833 58.3868 67.831 58.8346 67.831 59.3868V62.3174C67.831 62.8697 68.2788 63.3174 68.831 63.3174H72.3398C72.8921 63.3174 73.3398 62.8697 73.3398 62.3174V59.3868C73.3398 58.8346 73.7875 58.3868 74.3398 58.3868H74.474C75.0263 58.3868 75.474 58.8346 75.474 59.3868V69.6675Z" stroke="black" stroke-width="2" mask="url(#path-1-outside-1)"/>
<path d="M85.9887 70.4496C85.4694 70.0911 84.5661 69.9142 84.0224 70.2346C83.2731 70.6761 82.3492 70.8968 81.2509 70.8968C80.3049 70.8968 79.4892 70.5452 78.8038 69.8419C78.1185 69.1386 77.7758 68.271 77.7758 67.239C77.7758 65.993 78.301 64.9419 79.3514 64.0857C80.4092 63.2295 81.7649 62.8014 83.4187 62.8014C83.485 62.8014 83.5525 62.8034 83.6213 62.8073C84.2976 62.8457 84.983 62.3702 84.7825 61.7231C84.4462 60.6379 83.634 60.0954 82.346 60.0954C81.5856 60.0954 80.9215 60.2215 80.3537 60.4738C79.7693 60.7335 78.9901 60.6112 78.7071 60.0378V60.0378C78.5203 59.6592 78.6104 59.1967 78.9793 58.9916C79.2673 58.8315 79.6111 58.6796 80.0106 58.5359C80.7407 58.276 81.4446 58.146 82.1225 58.146C83.806 58.146 85.0501 58.5397 85.8546 59.3271C86.6591 60.1145 87.0614 61.4216 87.0614 63.2486V67.6403C87.0614 68.5186 87.2691 69.1583 87.6846 69.5595C87.8605 69.7293 88 69.9468 88 70.1912V70.1912C88 70.5682 87.6934 70.8797 87.3181 70.844C86.7383 70.7888 86.2951 70.6574 85.9887 70.4496V70.4496ZM84.9607 65.4469C84.9607 64.9743 84.6304 64.5619 84.1653 64.4781C83.8587 64.4229 83.6508 64.3953 83.5416 64.3953C82.4689 64.3953 81.5936 64.682 80.9157 65.2553C80.2378 65.8286 79.8989 66.4975 79.8989 67.2619C79.8989 68.5462 80.6326 69.1883 82.1002 69.1883C83.056 69.1883 83.9317 68.7546 84.7271 67.8873C84.8831 67.7172 84.9607 67.4913 84.9607 67.2605V65.4469Z" stroke="black" stroke-width="2" mask="url(#path-1-outside-1)"/>
</g>
<path d="M21.5322 50.2527C21.5322 50.5841 21.3017 50.8466 20.9704 50.8481C20.95 50.8482 20.9291 50.8482 20.9077 50.8482C20.2044 50.8482 19.6896 50.6778 19.3633 50.3369C19.0369 49.9907 18.7978 49.3995 18.6459 48.5632C18.4434 47.4181 18.027 46.5846 17.3969 46.0626C16.7668 45.5353 15.8863 45.2716 14.7554 45.2716C14.7181 45.2716 14.6879 45.3019 14.6879 45.3392V49.9244C14.6879 50.3905 14.31 50.7683 13.8439 50.7683C13.3778 50.7683 13 50.3905 13 49.9244V39.9158C13 39.4497 13.3778 39.0719 13.8439 39.0719C14.31 39.0719 14.6879 39.4497 14.6879 39.9158V43.7531C14.6879 43.8417 14.7597 43.9134 14.8482 43.9134C15.9003 43.9134 16.7443 43.6844 17.38 43.2264C18.0214 42.763 18.4209 42.0919 18.5784 41.213C18.7191 40.4301 18.9469 39.8655 19.262 39.5193C19.5827 39.1731 20.0806 39 20.7558 39C20.7717 39 20.7876 39.0001 20.8034 39.0002C21.1168 39.003 21.3465 39.2715 21.3465 39.585V40.0673C21.3465 40.2421 21.1753 40.3981 21.0005 40.3981C20.7867 40.3981 20.6207 40.4674 20.5026 40.6059C20.3901 40.739 20.2832 41.0399 20.1819 41.5087C20.0244 42.2597 19.6896 42.9095 19.1776 43.4581C18.7171 43.9467 18.6965 45.2679 19.1593 45.7544C19.7496 46.3749 20.1439 47.1834 20.3422 48.1798C20.4491 48.7124 20.5645 49.0533 20.6882 49.2024C20.8177 49.3515 20.978 49.4261 21.1693 49.4261C21.3599 49.4261 21.5322 49.5683 21.5322 49.7589V50.2527Z" fill="white"/>
<path d="M31.0602 49.9666C31.0602 50.4094 30.7013 50.7683 30.2585 50.7683C29.8157 50.7683 29.4567 50.4094 29.4567 49.9666V48.7396C29.4567 47.3753 27.7831 46.7194 26.8561 47.7205L23.8942 50.919C23.8464 50.9707 23.7793 51 23.7089 51C23.5694 51 23.4564 50.8869 23.4564 50.7474V43.0177C23.4564 42.5726 23.8172 42.2117 24.2623 42.2117C24.7074 42.2117 25.0683 42.5726 25.0683 43.0177V44.2362C25.0683 45.601 26.743 46.2566 27.6696 45.2545L30.6224 42.0611C30.6701 42.0094 30.7373 41.98 30.8077 41.98C30.9472 41.98 31.0602 42.0931 31.0602 42.2325V49.9666Z" fill="white"/>
<path d="M44.1665 49.2683C44.1665 50.0967 43.4949 50.7683 42.6665 50.7683H34.8473C34.0188 50.7683 33.3473 50.0967 33.3473 49.2683V42.9713C33.3473 42.5518 33.6873 42.2117 34.1068 42.2117C34.5263 42.2117 34.8664 42.5518 34.8664 42.9713V48.0379C34.8664 48.8664 35.5379 49.5379 36.3664 49.5379H36.4974C37.3258 49.5379 37.9974 48.8664 37.9974 48.0379V42.9713C37.9974 42.5518 38.3374 42.2117 38.7569 42.2117C39.1764 42.2117 39.5164 42.5518 39.5164 42.9713V48.0379C39.5164 48.8664 40.188 49.5379 41.0164 49.5379H41.1474C41.9759 49.5379 42.6474 48.8664 42.6474 48.0379V42.9713C42.6474 42.5518 42.9875 42.2117 43.407 42.2117C43.8265 42.2117 44.1665 42.5518 44.1665 42.9713V49.2683Z" fill="white"/>
<path d="M56.7716 50.7683C56.396 50.7683 56.0728 50.5025 56.0004 50.1339L55.6961 48.5855C55.4018 47.0882 53.32 46.9355 52.8104 48.3738L51.9771 50.7258C51.9341 50.847 51.8194 50.9281 51.6908 50.9281C51.5616 50.9281 51.4465 50.8464 51.4039 50.7244L50.6201 48.4774C50.1151 47.0297 48.0199 47.1828 47.7307 48.6885L47.4536 50.1312C47.3826 50.501 47.0591 50.7683 46.6825 50.7683C46.1852 50.7683 45.8132 50.312 45.9134 49.8249L48.0451 39.4586C48.0914 39.2335 48.2895 39.0719 48.5193 39.0719C48.7272 39.0719 48.9119 39.2046 48.9782 39.4016L50.3108 43.3606C50.7697 44.7238 52.6985 44.7221 53.1549 43.358L54.481 39.3949C54.5456 39.202 54.7263 39.0719 54.9297 39.0719C55.154 39.0719 55.3475 39.2294 55.393 39.4491L57.5412 49.823C57.6423 50.3108 57.2698 50.7683 56.7716 50.7683Z" fill="white"/>
<path d="M66.8937 49.9666C66.8937 50.4094 66.5347 50.7683 66.092 50.7683C65.6492 50.7683 65.2902 50.4094 65.2902 49.9666V48.7396C65.2902 47.3753 63.6166 46.7194 62.6896 47.7205L59.7277 50.919C59.6799 50.9707 59.6127 51 59.5424 51C59.4029 51 59.2898 50.8869 59.2898 50.7474V43.0177C59.2898 42.5726 59.6507 42.2117 60.0958 42.2117C60.5409 42.2117 60.9018 42.5726 60.9018 43.0177V44.2362C60.9018 45.601 62.5765 46.2566 63.5031 45.2545L66.4558 42.0611C66.5036 42.0094 66.5708 41.98 66.6412 41.98C66.7807 41.98 66.8937 42.0931 66.8937 42.2325V49.9666Z" fill="white"/>
<path d="M80 49.2683C80 50.0967 79.3284 50.7683 78.5 50.7683H70.6808C69.8523 50.7683 69.1808 50.0967 69.1808 49.2683V42.9713C69.1808 42.5518 69.5208 42.2117 69.9403 42.2117C70.3598 42.2117 70.6998 42.5518 70.6998 42.9713V48.0379C70.6998 48.8664 71.3714 49.5379 72.1998 49.5379H72.3308C73.1593 49.5379 73.8308 48.8664 73.8308 48.0379V42.9713C73.8308 42.5518 74.1709 42.2117 74.5904 42.2117C75.0099 42.2117 75.3499 42.5518 75.3499 42.9713V48.0379C75.3499 48.8664 76.0215 49.5379 76.8499 49.5379H76.9809C77.8093 49.5379 78.4809 48.8664 78.4809 48.0379V42.9713C78.4809 42.5518 78.821 42.2117 79.2405 42.2117C79.6599 42.2117 80 42.5518 80 42.9713V49.2683Z" fill="white"/>
<path fill-rule="evenodd" clip-rule="evenodd" d="M33.6234 12.1255C32.4365 11.1352 31.2674 9.78252 30.8418 8.09367C29.8609 4.20234 33.1981 0 33.1981 0C33.1981 0 38.1255 2.10676 39.1063 5.9981C39.8579 8.97994 38.074 12.1444 37.1991 13.4607C38.2616 12.6715 39.5765 12.2048 41.0002 12.2048C44.5312 12.2048 47.3936 15.0758 47.3936 18.6174C47.3936 22.1589 44.5312 25.0299 41.0002 25.0299C37.4692 25.0299 34.6068 22.1589 34.6068 18.6174C34.6068 17.1689 35.0856 15.8326 35.8931 14.759C34.6896 14.0654 33.5392 13.7385 32.4 13.7359C30.7635 13.7322 29.0113 14.397 27.0169 15.8836L26 14.5111C28.1724 12.8918 30.2767 12.021 32.4039 12.0259C32.8145 12.0268 33.2208 12.0604 33.6234 12.1255ZM37.4534 6.41721C37.8011 7.79673 37.4002 9.37893 36.7496 10.7839C36.5651 11.1825 36.3702 11.5456 36.1872 11.8592C35.8776 11.6705 35.5341 11.4439 35.1829 11.1812C33.9448 10.2551 32.8424 9.05407 32.4947 7.67456C32.1469 6.29504 32.5478 4.71284 33.1984 3.30787C33.383 2.90925 33.5778 2.54619 33.7608 2.23258C34.0704 2.42129 34.4139 2.64785 34.7652 2.9106C36.0033 3.83668 37.1057 5.0377 37.4534 6.41721ZM37.1641 18.6174C37.1641 16.4924 38.8816 14.7698 41.0002 14.7698C43.1188 14.7698 44.8362 16.4924 44.8362 18.6174C44.8362 20.7423 43.1188 22.4649 41.0002 22.4649C38.8816 22.4649 37.1641 20.7423 37.1641 18.6174Z" fill="white"/>
<path fill-rule="evenodd" clip-rule="evenodd" d="M47.8198 1.08974C44.2888 1.08974 41.4264 3.96074 41.4264 7.50229C41.4264 11.0438 44.2888 13.9148 47.8198 13.9148C51.3508 13.9148 54.2132 11.0438 54.2132 7.50229C54.2132 3.96074 51.3508 1.08974 47.8198 1.08974ZM43.9838 7.50229C43.9838 5.37736 45.7012 3.65476 47.8198 3.65476C49.9384 3.65476 51.6558 5.37736 51.6558 7.50229C51.6558 9.62722 49.9384 11.3498 47.8198 11.3498C45.7012 11.3498 43.9838 9.62722 43.9838 7.50229Z" fill="white"/>
<path fill-rule="evenodd" clip-rule="evenodd" d="M28.6396 30.5875C28.6396 27.0459 31.502 24.1749 35.033 24.1749C38.564 24.1749 41.4264 27.0459 41.4264 30.5875C41.4264 34.129 38.564 37 35.033 37C31.502 37 28.6396 34.129 28.6396 30.5875ZM35.033 26.7399C32.9144 26.7399 31.197 28.4625 31.197 30.5875C31.197 32.7124 32.9144 34.435 35.033 34.435C37.1516 34.435 38.869 32.7124 38.869 30.5875C38.869 28.4625 37.1516 26.7399 35.033 26.7399Z" fill="white"/>
<path fill-rule="evenodd" clip-rule="evenodd" d="M54.2132 30.5875C54.2132 34.129 51.3508 37 47.8198 37C44.2888 37 41.4264 34.129 41.4264 30.5875C41.4264 27.0459 44.2888 24.1749 47.8198 24.1749C51.3508 24.1749 54.2132 27.0459 54.2132 30.5875ZM47.8198 26.7399C45.7012 26.7399 43.9838 28.4625 43.9838 30.5875C43.9838 32.7124 45.7012 34.435 47.8198 34.435C49.9384 34.435 51.6558 32.7124 51.6558 30.5875C51.6558 28.4625 49.9384 26.7399 47.8198 26.7399Z" fill="white"/>
<path fill-rule="evenodd" clip-rule="evenodd" d="M54.2132 30.5875C54.2132 27.0459 57.0756 24.1749 60.6066 24.1749C64.1376 24.1749 67 27.0459 67 30.5875C67 34.129 64.1376 37 60.6066 37C57.0756 37 54.2132 34.129 54.2132 30.5875ZM56.7706 30.5875C56.7706 28.4625 58.488 26.7399 60.6066 26.7399C62.7252 26.7399 64.4426 28.4625 64.4426 30.5875C64.4426 32.7124 62.7252 34.435 60.6066 34.435C58.488 34.435 56.7706 32.7124 56.7706 30.5875Z" fill="white"/>
<path fill-rule="evenodd" clip-rule="evenodd" d="M54.6394 12.2048C51.1085 12.2048 48.246 15.0758 48.246 18.6174C48.246 22.1589 51.1085 25.0299 54.6394 25.0299C58.1704 25.0299 61.0328 22.1589 61.0328 18.6174C61.0328 15.0758 58.1704 12.2048 54.6394 12.2048ZM50.8034 18.6174C50.8034 16.4924 52.5208 14.7698 54.6394 14.7698C56.758 14.7698 58.4755 16.4924 58.4755 18.6174C58.4755 20.7423 56.758 22.4649 54.6394 22.4649C52.5208 22.4649 50.8034 20.7423 50.8034 18.6174Z" fill="white"/>
<defs>
<filter id="filter0_d" x="0" y="51.2047" width="93" height="28.7953" filterUnits="userSpaceOnUse" color-interpolation-filters="sRGB">
<feFlood flood-opacity="0" result="BackgroundImageFix"/>
<feColorMatrix in="SourceAlpha" type="matrix" values="0 0 0 0 0 0 0 0 0 0 0 0 0 0 0 0 0 0 127 0"/>
<feOffset dy="4"/>
<feGaussianBlur stdDeviation="2"/>
<feColorMatrix type="matrix" values="0 0 0 0 0 0 0 0 0 0 0 0 0 0 0 0 0 0 0.25 0"/>
<feBlend mode="normal" in2="BackgroundImageFix" result="effect1_dropShadow"/>
<feBlend mode="normal" in="SourceGraphic" in2="effect1_dropShadow" result="shape"/>
</filter>
</defs>
</svg>
