<svg width="294" height="80" viewBox="0 0 294 80" fill="none" xmlns="http://www.w3.org/2000/svg">
<path d="M38.2775 71.1082C16.9775 58.8082 6.94748 36.2982 15.8775 20.8282C24.8075 5.35822 49.3175 2.78822 70.6175 15.0882C75.9975 18.1882 80.6475 21.9482 84.4675 26.0782C79.6175 19.4482 72.9375 13.3782 64.7675 8.65823C40.9975 -5.06177 13.6475 -2.16177 3.65748 15.1282C-6.33252 32.4182 4.84747 57.5682 28.6075 71.2882C42.6575 79.3982 57.9575 81.6982 70.1875 78.6582C60.3075 79.6682 48.8975 77.2282 38.2775 71.1082Z" fill="#F8B500"/>
<path d="M29.6274 29.8984H33.5674V52.1284H29.6274V29.8984Z" fill="#F8B500"/>
<path d="M36.8374 29.8984H40.8874L47.7974 42.3984L50.0974 47.1484H50.2374C50.0474 44.8484 49.7374 42.0384 49.7374 39.5584V29.8984H53.4874V52.1284H49.4374L42.5274 39.6084L40.2274 34.8784H40.0874C40.2774 37.2284 40.5874 39.9084 40.5874 42.3884V52.1284H36.8374V29.8984Z" fill="#F8B500"/>
<path d="M61.2474 33.2082H54.8274V29.8882H71.6074V33.2082H65.1874V52.1282H61.2474V33.2082Z" fill="#F8B500"/>
<path d="M72.9375 29.8984H86.3175V33.2184H76.8775V38.9184H84.8775V42.2384H76.8775V48.8184H86.6575V52.1384H72.9375V29.8984Z" fill="#F8B500"/>
<path d="M88.8574 29.8984H96.3474C100.967 29.8984 104.537 31.5284 104.537 36.4984C104.537 41.2784 100.977 43.4484 96.3474 43.4484H92.7974V52.1384H88.8574V29.8984ZM95.9374 40.2884C98.9874 40.2884 100.647 39.0284 100.647 36.4984C100.647 33.9384 98.9874 33.0584 95.9374 33.0584H92.7974V40.2884H95.9374ZM95.6074 42.3884L98.4674 40.0384L105.407 52.1384H100.977L95.6074 42.3884Z" fill="#F8B500"/>
<path d="M55.8705 65.6862C55.4272 66.4082 54.8509 66.9846 54.1415 67.4152C53.4322 67.8459 52.5519 68.0612 51.5005 68.0612C50.8039 68.0612 50.1579 67.9346 49.5625 67.6812C48.9799 67.4279 48.4732 67.0796 48.0425 66.6362C47.6245 66.1929 47.2952 65.6736 47.0545 65.0782C46.8265 64.4829 46.7125 63.8369 46.7125 63.1402C46.7125 62.4562 46.8265 61.8229 47.0545 61.2402C47.2952 60.6449 47.6245 60.1319 48.0425 59.7012C48.4732 59.2579 48.9799 58.9096 49.5625 58.6562C50.1579 58.4029 50.8039 58.2762 51.5005 58.2762C52.6025 58.2762 53.4955 58.4979 54.1795 58.9412C54.8762 59.3719 55.4399 59.9482 55.8705 60.6702L55.1485 61.1642C54.7812 60.5562 54.3125 60.0749 53.7425 59.7202C53.1725 59.3656 52.4252 59.1882 51.5005 59.1882C50.9305 59.1882 50.4049 59.2896 49.9235 59.4922C49.4549 59.6949 49.0495 59.9736 48.7075 60.3282C48.3655 60.6829 48.0995 61.1072 47.9095 61.6012C47.7322 62.0826 47.6435 62.6019 47.6435 63.1592C47.6435 63.7166 47.7385 64.2422 47.9285 64.7362C48.1185 65.2176 48.3845 65.6419 48.7265 66.0092C49.0685 66.3639 49.4739 66.6426 49.9425 66.8452C50.4239 67.0479 50.9495 67.1492 51.5195 67.1492C52.4442 67.1492 53.1852 66.9782 53.7425 66.6362C54.3125 66.2816 54.7812 65.8002 55.1485 65.1922L55.8705 65.6862ZM57.0171 67.9282V54.9132H57.9481V67.9282H57.0171ZM59.4663 55.9202V54.9132H60.3973V55.9202H59.4663ZM59.4663 67.9282V58.4282H60.3973V67.9282H59.4663ZM62.8465 59.8152C63.0745 59.4226 63.4292 59.0679 63.9105 58.7512C64.4045 58.4346 65.0442 58.2762 65.8295 58.2762C66.5642 58.2762 67.1975 58.4472 67.7295 58.7892C68.2742 59.1186 68.6795 59.5872 68.9455 60.1952C69.0722 59.9546 69.2305 59.7202 69.4205 59.4922C69.6232 59.2642 69.8575 59.0616 70.1235 58.8842C70.4022 58.6942 70.7189 58.5486 71.0735 58.4472C71.4282 58.3332 71.8272 58.2762 72.2705 58.2762C73.3219 58.2762 74.1579 58.6119 74.7785 59.2832C75.4119 59.9419 75.7285 60.8349 75.7285 61.9622V67.9282H74.7975V62.0382C74.7975 61.1262 74.5632 60.4232 74.0945 59.9292C73.6385 59.4226 72.9989 59.1692 72.1755 59.1692C71.3142 59.1692 70.6175 59.4289 70.0855 59.9482C69.5535 60.4676 69.2875 61.2022 69.2875 62.1522V67.9282H68.3565V62.0382C68.3565 61.1262 68.1222 60.4232 67.6535 59.9292C67.1975 59.4226 66.5579 59.1692 65.7345 59.1692C64.8605 59.1692 64.1575 59.4416 63.6255 59.9862C63.1062 60.5309 62.8465 61.2972 62.8465 62.2852V67.9282H61.9155V58.4282H62.8465V59.8152ZM81.8587 59.1692C81.2887 59.1692 80.7567 59.2706 80.2627 59.4732C79.7814 59.6759 79.3634 59.9609 79.0087 60.3282C78.6667 60.6829 78.3944 61.1072 78.1917 61.6012C77.989 62.0826 77.8877 62.6082 77.8877 63.1782C77.8877 63.7356 77.989 64.2612 78.1917 64.7552C78.3944 65.2366 78.6667 65.6609 79.0087 66.0282C79.3634 66.3829 79.7814 66.6616 80.2627 66.8642C80.7567 67.0669 81.2887 67.1682 81.8587 67.1682C82.416 67.1682 82.9354 67.0669 83.4167 66.8642C83.9107 66.6616 84.335 66.3829 84.6897 66.0282C85.0444 65.6609 85.323 65.2366 85.5257 64.7552C85.7284 64.2739 85.8297 63.7482 85.8297 63.1782C85.8297 62.6082 85.7284 62.0826 85.5257 61.6012C85.323 61.1072 85.0444 60.6829 84.6897 60.3282C84.335 59.9609 83.9107 59.6759 83.4167 59.4732C82.9354 59.2706 82.416 59.1692 81.8587 59.1692ZM85.7727 66.0472C85.38 66.6426 84.848 67.1302 84.1767 67.5102C83.5054 67.8776 82.7137 68.0612 81.8017 68.0612C81.1177 68.0612 80.478 67.9346 79.8827 67.6812C79.3 67.4279 78.787 67.0859 78.3437 66.6552C77.913 66.2119 77.571 65.6926 77.3177 65.0972C77.077 64.5019 76.9567 63.8559 76.9567 63.1592C76.9567 62.4752 77.077 61.8356 77.3177 61.2402C77.571 60.6449 77.913 60.1319 78.3437 59.7012C78.787 59.2579 79.3 58.9096 79.8827 58.6562C80.478 58.4029 81.1177 58.2762 81.8017 58.2762C82.7137 58.2762 83.499 58.4599 84.1577 58.8272C84.829 59.1946 85.3674 59.6632 85.7727 60.2332V58.4282H86.7037V67.9282H85.7727V66.0472ZM92.8241 58.4282V59.2642H90.1831V65.0402C90.1831 65.4456 90.2401 65.7749 90.3541 66.0282C90.4807 66.2816 90.6327 66.4842 90.8101 66.6362C91.0001 66.7882 91.2027 66.8959 91.4181 66.9592C91.6461 67.0099 91.8677 67.0352 92.0831 67.0352H92.8051V67.9282H92.0641C91.7347 67.9282 91.4054 67.8839 91.0761 67.7952C90.7467 67.6939 90.4491 67.5292 90.1831 67.3012C89.9171 67.0732 89.6954 66.7756 89.5181 66.4082C89.3534 66.0409 89.2711 65.5849 89.2711 65.0402V59.2642H87.8461V58.4282H89.2711V55.6732H90.1831V58.4282H92.8241ZM102.335 65.6862C101.892 66.4082 101.316 66.9846 100.606 67.4152C99.9098 67.8459 99.0232 68.0612 97.9465 68.0612C97.2245 68.0612 96.5595 67.9346 95.9515 67.6812C95.3562 67.4279 94.8368 67.0859 94.3935 66.6552C93.9628 66.2119 93.6208 65.6926 93.3675 65.0972C93.1268 64.5019 93.0065 63.8559 93.0065 63.1592C93.0065 62.4752 93.1268 61.8356 93.3675 61.2402C93.6208 60.6449 93.9628 60.1319 94.3935 59.7012C94.8368 59.2579 95.3498 58.9096 95.9325 58.6562C96.5278 58.4029 97.1738 58.2762 97.8705 58.2762C98.5798 58.2762 99.2258 58.4029 99.8085 58.6562C100.404 58.9096 100.91 59.2452 101.328 59.6632C101.759 60.0812 102.088 60.5689 102.316 61.1262C102.557 61.6836 102.677 62.2662 102.677 62.8742C102.677 63.0262 102.671 63.1529 102.658 63.2542C102.658 63.3556 102.652 63.4379 102.639 63.5012H93.9945C94.0325 64.0839 94.1592 64.6032 94.3745 65.0592C94.6025 65.5026 94.8938 65.8826 95.2485 66.1992C95.6158 66.5032 96.0275 66.7376 96.4835 66.9022C96.9395 67.0669 97.4272 67.1492 97.9465 67.1492C98.8838 67.1492 99.6375 66.9782 100.207 66.6362C100.777 66.2816 101.246 65.8002 101.613 65.1922L102.335 65.6862ZM97.8705 59.1692C97.3892 59.1692 96.9268 59.2516 96.4835 59.4162C96.0402 59.5809 95.6412 59.8152 95.2865 60.1192C94.9445 60.4106 94.6532 60.7716 94.4125 61.2022C94.1845 61.6329 94.0452 62.1142 93.9945 62.6462H101.708C101.658 62.1142 101.518 61.6329 101.29 61.2022C101.075 60.7716 100.796 60.4042 100.454 60.1002C100.112 59.7962 99.7198 59.5682 99.2765 59.4162C98.8332 59.2516 98.3645 59.1692 97.8705 59.1692Z" fill="#F8B500"/>
<path d="M141.596 50.1543H135.219V62H132.289V47.7812H141.596V50.1543ZM151.068 56.8145C151.068 58.4421 150.697 59.7474 149.955 60.7305C149.219 61.707 148.223 62.1953 146.967 62.1953C145.899 62.1953 145.036 61.8242 144.379 61.082V66.0625H141.557V51.4336H144.174L144.271 52.4688C144.955 51.6484 145.847 51.2383 146.947 51.2383C148.249 51.2383 149.262 51.7201 149.984 52.6836C150.707 53.6471 151.068 54.9753 151.068 56.668V56.8145ZM148.246 56.6094C148.246 55.6263 148.07 54.8678 147.719 54.334C147.374 53.8001 146.869 53.5332 146.205 53.5332C145.32 53.5332 144.711 53.8717 144.379 54.5488V58.875C144.724 59.5716 145.339 59.9199 146.225 59.9199C147.572 59.9199 148.246 58.8164 148.246 56.6094ZM156.654 58.0059L158.607 51.4336H161.635L157.387 63.6406L157.152 64.1973C156.521 65.5775 155.479 66.2676 154.027 66.2676C153.617 66.2676 153.201 66.2057 152.777 66.082V63.9434L153.207 63.9531C153.741 63.9531 154.138 63.8717 154.398 63.709C154.665 63.5462 154.874 63.276 155.023 62.8984L155.355 62.0293L151.654 51.4336H154.691L156.654 58.0059ZM171.938 62H169.105V53.7188H165.57V62H162.748V51.4336H171.938V62ZM183.285 62H180.453V53.7188H176.918V62H174.096V51.4336H183.285V62ZM191.566 62C191.436 61.7461 191.342 61.4303 191.283 61.0527C190.6 61.8145 189.711 62.1953 188.617 62.1953C187.582 62.1953 186.723 61.8958 186.039 61.2969C185.362 60.6979 185.023 59.9427 185.023 59.0312C185.023 57.9115 185.437 57.0521 186.264 56.4531C187.097 55.8542 188.298 55.5514 189.867 55.5449H191.166V54.9395C191.166 54.4512 191.039 54.0605 190.785 53.7676C190.538 53.4746 190.144 53.3281 189.604 53.3281C189.128 53.3281 188.754 53.4421 188.48 53.6699C188.214 53.8978 188.08 54.2103 188.08 54.6074H185.258C185.258 53.9954 185.447 53.429 185.824 52.9082C186.202 52.3874 186.736 51.9805 187.426 51.6875C188.116 51.388 188.891 51.2383 189.75 51.2383C191.052 51.2383 192.084 51.5671 192.846 52.2246C193.614 52.8757 193.998 53.7936 193.998 54.9785V59.5586C194.005 60.5612 194.145 61.3197 194.418 61.834V62H191.566ZM189.232 60.0371C189.649 60.0371 190.033 59.946 190.385 59.7637C190.736 59.5749 190.997 59.3242 191.166 59.0117V57.1953H190.111C188.699 57.1953 187.947 57.6836 187.855 58.6602L187.846 58.8262C187.846 59.1777 187.969 59.4674 188.217 59.6953C188.464 59.9232 188.803 60.0371 189.232 60.0371ZM205.287 58.1035H204.154V62H201.332V51.4336H204.154V55.4082H205.16L207.465 51.4336H211.029L207.572 56.4629L211.352 62H207.592L205.287 58.1035ZM211.41 56.6191C211.41 55.571 211.612 54.6367 212.016 53.8164C212.419 52.9961 212.999 52.3613 213.754 51.9121C214.516 51.4629 215.398 51.2383 216.4 51.2383C217.826 51.2383 218.988 51.6745 219.887 52.5469C220.792 53.4193 221.296 54.6042 221.4 56.1016L221.42 56.8242C221.42 58.4453 220.967 59.7474 220.062 60.7305C219.158 61.707 217.943 62.1953 216.42 62.1953C214.896 62.1953 213.679 61.707 212.768 60.7305C211.863 59.7539 211.41 58.4258 211.41 56.7461V56.6191ZM214.232 56.8242C214.232 57.8268 214.421 58.5951 214.799 59.1289C215.176 59.6562 215.717 59.9199 216.42 59.9199C217.104 59.9199 217.637 59.6595 218.021 59.1387C218.406 58.6113 218.598 57.7715 218.598 56.6191C218.598 55.6361 218.406 54.8743 218.021 54.334C217.637 53.7936 217.097 53.5234 216.4 53.5234C215.71 53.5234 215.176 53.7936 214.799 54.334C214.421 54.8678 214.232 55.6979 214.232 56.8242ZM229.594 58.6699L232.357 51.4336H235.893V62H233.07V55.5156L230.541 62H228.646L226.166 55.623V62H223.344V51.4336H226.85L229.594 58.6699ZM247.543 62H244.711V53.7188H241.176V62H238.354V51.4336H247.543V62ZM255.824 62C255.694 61.7461 255.6 61.4303 255.541 61.0527C254.857 61.8145 253.969 62.1953 252.875 62.1953C251.84 62.1953 250.98 61.8958 250.297 61.2969C249.62 60.6979 249.281 59.9427 249.281 59.0312C249.281 57.9115 249.695 57.0521 250.521 56.4531C251.355 55.8542 252.556 55.5514 254.125 55.5449H255.424V54.9395C255.424 54.4512 255.297 54.0605 255.043 53.7676C254.796 53.4746 254.402 53.3281 253.861 53.3281C253.386 53.3281 253.012 53.4421 252.738 53.6699C252.471 53.8978 252.338 54.2103 252.338 54.6074H249.516C249.516 53.9954 249.704 53.429 250.082 52.9082C250.46 52.3874 250.993 51.9805 251.684 51.6875C252.374 51.388 253.148 51.2383 254.008 51.2383C255.31 51.2383 256.342 51.5671 257.104 52.2246C257.872 52.8757 258.256 53.7936 258.256 54.9785V59.5586C258.262 60.5612 258.402 61.3197 258.676 61.834V62H255.824ZM253.49 60.0371C253.907 60.0371 254.291 59.946 254.643 59.7637C254.994 59.5749 255.255 59.3242 255.424 59.0117V57.1953H254.369C252.956 57.1953 252.204 57.6836 252.113 58.6602L252.104 58.8262C252.104 59.1777 252.227 59.4674 252.475 59.6953C252.722 59.9232 253.061 60.0371 253.49 60.0371ZM269.584 62H266.752V57.9375H263.246V62H260.424V51.4336H263.246V55.6719H266.752V51.4336H269.584V62ZM278.139 51.4336H280.961V62H278.139V55.4766L274.604 62H271.771V51.4336H274.604V57.9473L278.139 51.4336ZM289.486 51.4336H292.309V62H289.486V55.4766L285.951 62H283.119V51.4336H285.951V57.9473L289.486 51.4336ZM291.146 47.1465C291.146 48.0124 290.834 48.7122 290.209 49.2461C289.59 49.7799 288.777 50.0469 287.768 50.0469C286.758 50.0469 285.941 49.7832 285.316 49.2559C284.698 48.7285 284.389 48.0254 284.389 47.1465H286.391C286.391 47.5566 286.511 47.8757 286.752 48.1035C286.999 48.3249 287.338 48.4355 287.768 48.4355C288.191 48.4355 288.523 48.3249 288.764 48.1035C289.005 47.8757 289.125 47.5566 289.125 47.1465H291.146Z" fill="#F8B500"/>
<path d="M138.822 35H136V24.1211L132.631 25.166V22.8711L138.52 20.7617H138.822V35ZM153.021 29.1211C153.021 31.0872 152.615 32.5911 151.801 33.6328C150.987 34.6745 149.796 35.1953 148.227 35.1953C146.677 35.1953 145.492 34.6842 144.672 33.6621C143.852 32.64 143.432 31.1751 143.412 29.2676V26.6504C143.412 24.6647 143.822 23.1576 144.643 22.1289C145.469 21.1003 146.658 20.5859 148.207 20.5859C149.757 20.5859 150.941 21.097 151.762 22.1191C152.582 23.1348 153.002 24.5964 153.021 26.5039V29.1211ZM150.199 26.25C150.199 25.0716 150.036 24.2155 149.711 23.6816C149.392 23.1413 148.891 22.8711 148.207 22.8711C147.543 22.8711 147.051 23.1283 146.732 23.6426C146.42 24.1504 146.254 24.9479 146.234 26.0352V29.4922C146.234 30.651 146.391 31.5137 146.703 32.0801C147.022 32.64 147.53 32.9199 148.227 32.9199C148.917 32.9199 149.415 32.6497 149.721 32.1094C150.027 31.569 150.186 30.7422 150.199 29.6289V26.25ZM169.223 24.4336V35H166.4V26.7188H163.91L163.734 29.9805C163.624 31.7188 163.282 32.985 162.709 33.7793C162.136 34.5736 161.283 34.9805 160.15 35H159.193L159.164 32.7051L159.516 32.6758C160.023 32.6367 160.395 32.3372 160.629 31.7773C160.863 31.2174 161.01 30.2637 161.068 28.916L161.264 24.4336H169.223ZM176.264 35.1953C174.714 35.1953 173.451 34.7201 172.475 33.7695C171.505 32.819 171.02 31.5527 171.02 29.9707V29.6973C171.02 28.6361 171.225 27.6888 171.635 26.8555C172.045 26.0156 172.624 25.3711 173.373 24.9219C174.128 24.4661 174.988 24.2383 175.951 24.2383C177.396 24.2383 178.533 24.694 179.359 25.6055C180.193 26.5169 180.609 27.8092 180.609 29.4824V30.6348H173.881C173.972 31.3249 174.245 31.8783 174.701 32.2949C175.163 32.7116 175.746 32.9199 176.449 32.9199C177.536 32.9199 178.386 32.526 178.998 31.7383L180.385 33.291C179.962 33.89 179.389 34.3587 178.666 34.6973C177.943 35.0293 177.143 35.1953 176.264 35.1953ZM175.941 26.5234C175.382 26.5234 174.926 26.7122 174.574 27.0898C174.229 27.4674 174.008 28.0078 173.91 28.7109H177.836V28.4863C177.823 27.8613 177.654 27.3796 177.328 27.041C177.003 26.696 176.54 26.5234 175.941 26.5234ZM190.873 26.6992H187.484V35H184.652V26.6992H181.322V24.4336H190.873V26.6992ZM206.439 35H203.607V30.9375H200.102V35H197.279V24.4336H200.102V28.6719H203.607V24.4336H206.439V35ZM214.75 35C214.62 34.7461 214.525 34.4303 214.467 34.0527C213.783 34.8145 212.895 35.1953 211.801 35.1953C210.766 35.1953 209.906 34.8958 209.223 34.2969C208.546 33.6979 208.207 32.9427 208.207 32.0312C208.207 30.9115 208.62 30.0521 209.447 29.4531C210.281 28.8542 211.482 28.5514 213.051 28.5449H214.35V27.9395C214.35 27.4512 214.223 27.0605 213.969 26.7676C213.721 26.4746 213.327 26.3281 212.787 26.3281C212.312 26.3281 211.938 26.4421 211.664 26.6699C211.397 26.8978 211.264 27.2103 211.264 27.6074H208.441C208.441 26.9954 208.63 26.429 209.008 25.9082C209.385 25.3874 209.919 24.9805 210.609 24.6875C211.299 24.388 212.074 24.2383 212.934 24.2383C214.236 24.2383 215.268 24.5671 216.029 25.2246C216.798 25.8757 217.182 26.7936 217.182 27.9785V32.5586C217.188 33.5612 217.328 34.3197 217.602 34.834V35H214.75ZM212.416 33.0371C212.833 33.0371 213.217 32.946 213.568 32.7637C213.92 32.5749 214.18 32.3242 214.35 32.0117V30.1953H213.295C211.882 30.1953 211.13 30.6836 211.039 31.6602L211.029 31.8262C211.029 32.1777 211.153 32.4674 211.4 32.6953C211.648 32.9232 211.986 33.0371 212.416 33.0371ZM233.842 29.8145C233.842 31.4421 233.471 32.7474 232.729 33.7305C231.993 34.707 230.997 35.1953 229.74 35.1953C228.673 35.1953 227.81 34.8242 227.152 34.082V39.0625H224.33V24.4336H226.947L227.045 25.4688C227.729 24.6484 228.62 24.2383 229.721 24.2383C231.023 24.2383 232.035 24.7201 232.758 25.6836C233.48 26.6471 233.842 27.9753 233.842 29.668V29.8145ZM231.02 29.6094C231.02 28.6263 230.844 27.8678 230.492 27.334C230.147 26.8001 229.643 26.5332 228.979 26.5332C228.093 26.5332 227.484 26.8717 227.152 27.5488V31.875C227.497 32.5716 228.113 32.9199 228.998 32.9199C230.346 32.9199 231.02 31.8164 231.02 29.6094ZM238.617 27.5293H240.639C241.55 27.5293 242.351 27.6823 243.041 27.9883C243.731 28.2943 244.258 28.7337 244.623 29.3066C244.994 29.873 245.18 30.5339 245.18 31.2891C245.18 32.4023 244.766 33.3008 243.939 33.9844C243.119 34.6615 241.999 35 240.58 35H235.785V24.4336H238.617V27.5293ZM249.672 35H246.85V24.4336H249.672V35ZM238.617 29.7949V32.7441H240.619C241.179 32.7441 241.609 32.6139 241.908 32.3535C242.208 32.0931 242.357 31.7383 242.357 31.2891C242.357 30.8333 242.211 30.472 241.918 30.2051C241.625 29.9316 241.192 29.7949 240.619 29.7949H238.617ZM261.322 35H258.49V30.9375H254.984V35H252.162V24.4336H254.984V28.6719H258.49V24.4336H261.322V35ZM267.65 31.1035H266.518V35H263.695V24.4336H266.518V28.4082H267.523L269.828 24.4336H273.393L269.936 29.4629L273.715 35H269.955L267.65 31.1035ZM279.486 35.1953C277.937 35.1953 276.674 34.7201 275.697 33.7695C274.727 32.819 274.242 31.5527 274.242 29.9707V29.6973C274.242 28.6361 274.447 27.6888 274.857 26.8555C275.268 26.0156 275.847 25.3711 276.596 24.9219C277.351 24.4661 278.21 24.2383 279.174 24.2383C280.619 24.2383 281.755 24.694 282.582 25.6055C283.415 26.5169 283.832 27.8092 283.832 29.4824V30.6348H277.104C277.195 31.3249 277.468 31.8783 277.924 32.2949C278.386 32.7116 278.969 32.9199 279.672 32.9199C280.759 32.9199 281.609 32.526 282.221 31.7383L283.607 33.291C283.184 33.89 282.611 34.3587 281.889 34.6973C281.166 35.0293 280.365 35.1953 279.486 35.1953ZM279.164 26.5234C278.604 26.5234 278.148 26.7122 277.797 27.0898C277.452 27.4674 277.23 28.0078 277.133 28.7109H281.059V28.4863C281.046 27.8613 280.876 27.3796 280.551 27.041C280.225 26.696 279.763 26.5234 279.164 26.5234Z" fill="#F8B500"/>
</svg>
