<svg width="85" height="72" viewBox="0 0 85 72" fill="none" xmlns="http://www.w3.org/2000/svg">
<mask id="path-1-outside-1" maskUnits="userSpaceOnUse" x="0" y="51" width="85" height="21" fill="black">
<rect fill="white" y="51" width="85" height="21"/>
<path d="M10.4196 69.6675C10.4196 70.2198 9.97191 70.6675 9.41963 70.6675H9.29658C8.7443 70.6675 8.29658 70.2198 8.29658 69.6675V67.1454C8.29658 66.4908 7.67661 66.0127 7.02847 66.1047C6.4404 66.1882 5.83138 66.2299 5.2014 66.2299C3.89032 66.2299 2.86232 65.8439 2.11739 65.0718C1.37246 64.2997 1 63.176 1 61.7007V59.3868C1 58.8346 1.44772 58.3868 2 58.3868H2.12305C2.67533 58.3868 3.12305 58.8346 3.12305 59.3868V61.6548C3.12305 62.5645 3.34653 63.2563 3.79348 63.7302C4.24789 64.2042 4.90343 64.4412 5.7601 64.4412C6.3502 64.4412 6.93854 64.3976 7.5251 64.3106C7.99091 64.2414 8.31893 63.8298 8.31893 63.3589V59.3868C8.31893 58.8346 8.76664 58.3868 9.31893 58.3868H9.41963C9.97191 58.3868 10.4196 58.8346 10.4196 59.3868V69.6675Z"/>
<path d="M20.9343 70.4496C20.415 70.0911 19.5117 69.9142 18.968 70.2346C18.2187 70.6761 17.2949 70.8968 16.1966 70.8968C15.2505 70.8968 14.4348 70.5452 13.7495 69.8419C13.0641 69.1386 12.7215 68.271 12.7215 67.239C12.7215 65.993 13.2466 64.9419 14.297 64.0857C15.3548 63.2295 16.7106 62.8014 18.3643 62.8014C18.4306 62.8014 18.4981 62.8034 18.5669 62.8073C19.2433 62.8457 19.9286 62.3702 19.7281 61.7231C19.3918 60.6379 18.5796 60.0954 17.2916 60.0954C16.5312 60.0954 15.8671 60.2215 15.2993 60.4738C14.7149 60.7335 13.9357 60.6112 13.6527 60.0378C13.4659 59.6592 13.556 59.1967 13.9249 58.9916C14.2129 58.8315 14.5567 58.6796 14.9562 58.5359C15.6863 58.276 16.3902 58.146 17.0681 58.146C18.7517 58.146 19.9957 58.5397 20.8002 59.3271C21.6047 60.1145 22.007 61.4216 22.007 63.2486V67.6403C22.007 68.5186 22.2147 69.1583 22.6302 69.5595C22.8061 69.7293 22.9456 69.9468 22.9456 70.1912C22.9456 70.5682 22.639 70.8797 22.2637 70.844C21.6839 70.7888 21.2408 70.6574 20.9343 70.4496ZM19.9063 65.4469C19.9063 64.9743 19.576 64.5619 19.1109 64.4781C18.8043 64.4229 18.5964 64.3953 18.4872 64.3953C17.4145 64.3953 16.5392 64.682 15.8613 65.2553C15.1834 65.8286 14.8445 66.4975 14.8445 67.2619C14.8445 68.5462 15.5783 69.1883 17.0458 69.1883C18.0016 69.1883 18.8773 68.7546 19.6727 67.8873C19.8287 67.7172 19.9063 67.4913 19.9063 67.2605V65.4469Z"/>
<path d="M35.2705 69.6675C35.2705 70.2198 34.8227 70.6675 34.2705 70.6675H34.1474C33.5951 70.6675 33.1474 70.2198 33.1474 69.6675V64.9727C33.1474 64.0435 31.9906 63.6166 31.3871 64.3231L25.7817 70.8847C25.7192 70.9579 25.6278 71 25.5316 71C25.35 71 25.2027 70.8528 25.2027 70.6711V59.3868C25.2027 58.8346 25.6505 58.3868 26.2027 58.3868H26.337C26.8893 58.3868 27.337 58.8346 27.337 59.3868V64.0785C27.337 65.0081 28.4945 65.4348 29.0978 64.7275L34.6915 58.1697C34.754 58.0965 34.8454 58.0543 34.9417 58.0543C35.1233 58.0543 35.2705 58.2015 35.2705 58.3831V69.6675ZM33.6028 52.2475C34.0761 52.3585 34.3821 52.8313 34.222 53.2904C33.5998 55.0751 32.3402 55.9674 30.4433 55.9674C28.5739 55.9674 27.325 55.0948 26.6965 53.3495C26.5201 52.8594 26.8484 52.3518 27.3554 52.2324C27.8913 52.1063 28.405 52.4658 28.6083 52.9774C28.9719 53.8929 29.5836 54.3506 30.4433 54.3506C31.4101 54.3506 32.0671 53.8931 32.4145 52.978C32.6017 52.4849 33.0892 52.1271 33.6028 52.2475Z"/>
<path d="M47.0607 69.0809C47.5396 69.7421 47.0672 70.6675 46.2508 70.6675H46.115C45.7768 70.6675 45.4615 70.4966 45.277 70.2132L43.3616 67.2721C42.964 66.6615 42.0678 66.6675 41.6784 67.2834L39.8333 70.2019C39.65 70.4917 39.331 70.6675 38.988 70.6675H38.9444C38.1334 70.6675 37.6597 69.7529 38.1277 69.0905L41.0605 64.9391C41.3012 64.5983 41.3051 64.1438 41.0701 63.799L38.4474 59.9499C37.9951 59.2861 38.4705 58.3868 39.2738 58.3868H39.3177C39.6637 58.3868 39.9851 58.5657 40.1675 58.8597L41.73 61.3784C42.1152 61.9994 43.0146 62.0109 43.4157 61.4001L45.1075 58.8233C45.2863 58.5509 45.5903 58.3868 45.9161 58.3868C46.703 58.3868 47.1606 59.2764 46.7031 59.9166L44.0023 63.6953C43.7523 64.0449 43.7538 64.5152 44.0059 64.8633L47.0607 69.0809Z"/>
<path d="M57.4284 70.4496C56.9091 70.0911 56.0058 69.9142 55.4621 70.2346C54.7127 70.6761 53.7889 70.8968 52.6906 70.8968C51.7446 70.8968 50.9289 70.5452 50.2435 69.8419C49.5582 69.1386 49.2155 68.271 49.2155 67.239C49.2155 65.993 49.7407 64.9419 50.7911 64.0857C51.8489 63.2295 53.2046 62.8014 54.8584 62.8014C54.9246 62.8014 54.9922 62.8034 55.061 62.8073C55.7373 62.8457 56.4227 62.3702 56.2221 61.7231C55.8859 60.6379 55.0737 60.0954 53.7857 60.0954C53.0253 60.0954 52.3612 60.2215 51.7934 60.4738C51.209 60.7335 50.4298 60.6112 50.1468 60.0378C49.96 59.6592 50.0501 59.1967 50.419 58.9916C50.707 58.8315 51.0507 58.6796 51.4503 58.5359C52.1804 58.276 52.8843 58.146 53.5622 58.146C55.2457 58.146 56.4898 58.5397 57.2943 59.3271C58.0988 60.1145 58.5011 61.4216 58.5011 63.2486V67.6403C58.5011 68.5186 58.7088 69.1583 59.1243 69.5595C59.3002 69.7293 59.4397 69.9468 59.4397 70.1912C59.4397 70.5682 59.1331 70.8797 58.7578 70.844C58.178 70.7888 57.7348 70.6574 57.4284 70.4496ZM56.4004 65.4469C56.4004 64.9743 56.0701 64.5619 55.605 64.4781C55.2984 64.4229 55.0905 64.3953 54.9813 64.3953C53.9086 64.3953 53.0333 64.682 52.3554 65.2553C51.6775 65.8286 51.3386 66.4975 51.3386 67.2619C51.3386 68.5462 52.0723 69.1883 53.5398 69.1883C54.4957 69.1883 55.3714 68.7546 56.1668 67.8873C56.3228 67.7172 56.4004 67.4913 56.4004 67.2605V65.4469Z"/>
<path d="M71.474 69.6675C71.474 70.2198 71.0263 70.6675 70.474 70.6675H70.3398C69.7875 70.6675 69.3398 70.2198 69.3398 69.6675V66.1291C69.3398 65.5769 68.8921 65.1291 68.3398 65.1291H64.831C64.2788 65.1291 63.831 65.5769 63.831 66.1291V69.6675C63.831 70.2198 63.3833 70.6675 62.831 70.6675H62.6968C62.1445 70.6675 61.6968 70.2198 61.6968 69.6675V59.3868C61.6968 58.8346 62.1445 58.3868 62.6968 58.3868H62.831C63.3833 58.3868 63.831 58.8346 63.831 59.3868V62.3174C63.831 62.8697 64.2788 63.3174 64.831 63.3174H68.3398C68.8921 63.3174 69.3398 62.8697 69.3398 62.3174V59.3868C69.3398 58.8346 69.7875 58.3868 70.3398 58.3868H70.474C71.0263 58.3868 71.474 58.8346 71.474 59.3868V69.6675Z"/>
<path d="M81.9887 70.4496C81.4694 70.0911 80.5661 69.9142 80.0224 70.2346C79.2731 70.6761 78.3492 70.8968 77.2509 70.8968C76.3049 70.8968 75.4892 70.5452 74.8038 69.8419C74.1185 69.1386 73.7758 68.271 73.7758 67.239C73.7758 65.993 74.301 64.9419 75.3514 64.0857C76.4092 63.2295 77.7649 62.8014 79.4187 62.8014C79.485 62.8014 79.5525 62.8034 79.6213 62.8073C80.2976 62.8457 80.983 62.3702 80.7824 61.7231C80.4462 60.6379 79.634 60.0954 78.346 60.0954C77.5856 60.0954 76.9215 60.2215 76.3537 60.4738C75.7693 60.7335 74.9901 60.6112 74.7071 60.0378C74.5203 59.6592 74.6104 59.1967 74.9793 58.9916C75.2673 58.8315 75.6111 58.6796 76.0106 58.5359C76.7407 58.276 77.4446 58.146 78.1225 58.146C79.806 58.146 81.0501 58.5397 81.8546 59.3271C82.6591 60.1145 83.0614 61.4216 83.0614 63.2486V67.6403C83.0614 68.5186 83.2691 69.1583 83.6846 69.5595C83.8605 69.7293 84 69.9468 84 70.1912C84 70.5682 83.6934 70.8797 83.3181 70.844C82.7383 70.7888 82.2951 70.6574 81.9887 70.4496ZM80.9607 65.4469C80.9607 64.9743 80.6304 64.5619 80.1653 64.4781C79.8587 64.4229 79.6508 64.3953 79.5416 64.3953C78.4689 64.3953 77.5936 64.682 76.9157 65.2553C76.2378 65.8286 75.8989 66.4975 75.8989 67.2619C75.8989 68.5462 76.6326 69.1883 78.1002 69.1883C79.056 69.1883 79.9317 68.7546 80.7271 67.8873C80.8831 67.7172 80.9607 67.4913 80.9607 67.2605V65.4469Z"/>
</mask>
<path d="M10.4196 69.6675C10.4196 70.2198 9.97191 70.6675 9.41963 70.6675H9.29658C8.7443 70.6675 8.29658 70.2198 8.29658 69.6675V67.1454C8.29658 66.4908 7.67661 66.0127 7.02847 66.1047C6.4404 66.1882 5.83138 66.2299 5.2014 66.2299C3.89032 66.2299 2.86232 65.8439 2.11739 65.0718C1.37246 64.2997 1 63.176 1 61.7007V59.3868C1 58.8346 1.44772 58.3868 2 58.3868H2.12305C2.67533 58.3868 3.12305 58.8346 3.12305 59.3868V61.6548C3.12305 62.5645 3.34653 63.2563 3.79348 63.7302C4.24789 64.2042 4.90343 64.4412 5.7601 64.4412C6.3502 64.4412 6.93854 64.3976 7.5251 64.3106C7.99091 64.2414 8.31893 63.8298 8.31893 63.3589V59.3868C8.31893 58.8346 8.76664 58.3868 9.31893 58.3868H9.41963C9.97191 58.3868 10.4196 58.8346 10.4196 59.3868V69.6675Z" fill="#FFB9C6"/>
<path d="M20.9343 70.4496C20.415 70.0911 19.5117 69.9142 18.968 70.2346C18.2187 70.6761 17.2949 70.8968 16.1966 70.8968C15.2505 70.8968 14.4348 70.5452 13.7495 69.8419C13.0641 69.1386 12.7215 68.271 12.7215 67.239C12.7215 65.993 13.2466 64.9419 14.297 64.0857C15.3548 63.2295 16.7106 62.8014 18.3643 62.8014C18.4306 62.8014 18.4981 62.8034 18.5669 62.8073C19.2433 62.8457 19.9286 62.3702 19.7281 61.7231C19.3918 60.6379 18.5796 60.0954 17.2916 60.0954C16.5312 60.0954 15.8671 60.2215 15.2993 60.4738C14.7149 60.7335 13.9357 60.6112 13.6527 60.0378C13.4659 59.6592 13.556 59.1967 13.9249 58.9916C14.2129 58.8315 14.5567 58.6796 14.9562 58.5359C15.6863 58.276 16.3902 58.146 17.0681 58.146C18.7517 58.146 19.9957 58.5397 20.8002 59.3271C21.6047 60.1145 22.007 61.4216 22.007 63.2486V67.6403C22.007 68.5186 22.2147 69.1583 22.6302 69.5595C22.8061 69.7293 22.9456 69.9468 22.9456 70.1912C22.9456 70.5682 22.639 70.8797 22.2637 70.844C21.6839 70.7888 21.2408 70.6574 20.9343 70.4496ZM19.9063 65.4469C19.9063 64.9743 19.576 64.5619 19.1109 64.4781C18.8043 64.4229 18.5964 64.3953 18.4872 64.3953C17.4145 64.3953 16.5392 64.682 15.8613 65.2553C15.1834 65.8286 14.8445 66.4975 14.8445 67.2619C14.8445 68.5462 15.5783 69.1883 17.0458 69.1883C18.0016 69.1883 18.8773 68.7546 19.6727 67.8873C19.8287 67.7172 19.9063 67.4913 19.9063 67.2605V65.4469Z" fill="#FFB9C6"/>
<path d="M35.2705 69.6675C35.2705 70.2198 34.8227 70.6675 34.2705 70.6675H34.1474C33.5951 70.6675 33.1474 70.2198 33.1474 69.6675V64.9727C33.1474 64.0435 31.9906 63.6166 31.3871 64.3231L25.7817 70.8847C25.7192 70.9579 25.6278 71 25.5316 71C25.35 71 25.2027 70.8528 25.2027 70.6711V59.3868C25.2027 58.8346 25.6505 58.3868 26.2027 58.3868H26.337C26.8893 58.3868 27.337 58.8346 27.337 59.3868V64.0785C27.337 65.0081 28.4945 65.4348 29.0978 64.7275L34.6915 58.1697C34.754 58.0965 34.8454 58.0543 34.9417 58.0543C35.1233 58.0543 35.2705 58.2015 35.2705 58.3831V69.6675ZM33.6028 52.2475C34.0761 52.3585 34.3821 52.8313 34.222 53.2904C33.5998 55.0751 32.3402 55.9674 30.4433 55.9674C28.5739 55.9674 27.325 55.0948 26.6965 53.3495C26.5201 52.8594 26.8484 52.3518 27.3554 52.2324C27.8913 52.1063 28.405 52.4658 28.6083 52.9774C28.9719 53.8929 29.5836 54.3506 30.4433 54.3506C31.4101 54.3506 32.0671 53.8931 32.4145 52.978C32.6017 52.4849 33.0892 52.1271 33.6028 52.2475Z" fill="#FFB9C6"/>
<path d="M47.0607 69.0809C47.5396 69.7421 47.0672 70.6675 46.2508 70.6675H46.115C45.7768 70.6675 45.4615 70.4966 45.277 70.2132L43.3616 67.2721C42.964 66.6615 42.0678 66.6675 41.6784 67.2834L39.8333 70.2019C39.65 70.4917 39.331 70.6675 38.988 70.6675H38.9444C38.1334 70.6675 37.6597 69.7529 38.1277 69.0905L41.0605 64.9391C41.3012 64.5983 41.3051 64.1438 41.0701 63.799L38.4474 59.9499C37.9951 59.2861 38.4705 58.3868 39.2738 58.3868H39.3177C39.6637 58.3868 39.9851 58.5657 40.1675 58.8597L41.73 61.3784C42.1152 61.9994 43.0146 62.0109 43.4157 61.4001L45.1075 58.8233C45.2863 58.5509 45.5903 58.3868 45.9161 58.3868C46.703 58.3868 47.1606 59.2764 46.7031 59.9166L44.0023 63.6953C43.7523 64.0449 43.7538 64.5152 44.0059 64.8633L47.0607 69.0809Z" fill="#FFB9C6"/>
<path d="M57.4284 70.4496C56.9091 70.0911 56.0058 69.9142 55.4621 70.2346C54.7127 70.6761 53.7889 70.8968 52.6906 70.8968C51.7446 70.8968 50.9289 70.5452 50.2435 69.8419C49.5582 69.1386 49.2155 68.271 49.2155 67.239C49.2155 65.993 49.7407 64.9419 50.7911 64.0857C51.8489 63.2295 53.2046 62.8014 54.8584 62.8014C54.9246 62.8014 54.9922 62.8034 55.061 62.8073C55.7373 62.8457 56.4227 62.3702 56.2221 61.7231C55.8859 60.6379 55.0737 60.0954 53.7857 60.0954C53.0253 60.0954 52.3612 60.2215 51.7934 60.4738C51.209 60.7335 50.4298 60.6112 50.1468 60.0378C49.96 59.6592 50.0501 59.1967 50.419 58.9916C50.707 58.8315 51.0507 58.6796 51.4503 58.5359C52.1804 58.276 52.8843 58.146 53.5622 58.146C55.2457 58.146 56.4898 58.5397 57.2943 59.3271C58.0988 60.1145 58.5011 61.4216 58.5011 63.2486V67.6403C58.5011 68.5186 58.7088 69.1583 59.1243 69.5595C59.3002 69.7293 59.4397 69.9468 59.4397 70.1912C59.4397 70.5682 59.1331 70.8797 58.7578 70.844C58.178 70.7888 57.7348 70.6574 57.4284 70.4496ZM56.4004 65.4469C56.4004 64.9743 56.0701 64.5619 55.605 64.4781C55.2984 64.4229 55.0905 64.3953 54.9813 64.3953C53.9086 64.3953 53.0333 64.682 52.3554 65.2553C51.6775 65.8286 51.3386 66.4975 51.3386 67.2619C51.3386 68.5462 52.0723 69.1883 53.5398 69.1883C54.4957 69.1883 55.3714 68.7546 56.1668 67.8873C56.3228 67.7172 56.4004 67.4913 56.4004 67.2605V65.4469Z" fill="#FFB9C6"/>
<path d="M71.474 69.6675C71.474 70.2198 71.0263 70.6675 70.474 70.6675H70.3398C69.7875 70.6675 69.3398 70.2198 69.3398 69.6675V66.1291C69.3398 65.5769 68.8921 65.1291 68.3398 65.1291H64.831C64.2788 65.1291 63.831 65.5769 63.831 66.1291V69.6675C63.831 70.2198 63.3833 70.6675 62.831 70.6675H62.6968C62.1445 70.6675 61.6968 70.2198 61.6968 69.6675V59.3868C61.6968 58.8346 62.1445 58.3868 62.6968 58.3868H62.831C63.3833 58.3868 63.831 58.8346 63.831 59.3868V62.3174C63.831 62.8697 64.2788 63.3174 64.831 63.3174H68.3398C68.8921 63.3174 69.3398 62.8697 69.3398 62.3174V59.3868C69.3398 58.8346 69.7875 58.3868 70.3398 58.3868H70.474C71.0263 58.3868 71.474 58.8346 71.474 59.3868V69.6675Z" fill="#FFB9C6"/>
<path d="M81.9887 70.4496C81.4694 70.0911 80.5661 69.9142 80.0224 70.2346C79.2731 70.6761 78.3492 70.8968 77.2509 70.8968C76.3049 70.8968 75.4892 70.5452 74.8038 69.8419C74.1185 69.1386 73.7758 68.271 73.7758 67.239C73.7758 65.993 74.301 64.9419 75.3514 64.0857C76.4092 63.2295 77.7649 62.8014 79.4187 62.8014C79.485 62.8014 79.5525 62.8034 79.6213 62.8073C80.2976 62.8457 80.983 62.3702 80.7824 61.7231C80.4462 60.6379 79.634 60.0954 78.346 60.0954C77.5856 60.0954 76.9215 60.2215 76.3537 60.4738C75.7693 60.7335 74.9901 60.6112 74.7071 60.0378C74.5203 59.6592 74.6104 59.1967 74.9793 58.9916C75.2673 58.8315 75.6111 58.6796 76.0106 58.5359C76.7407 58.276 77.4446 58.146 78.1225 58.146C79.806 58.146 81.0501 58.5397 81.8546 59.3271C82.6591 60.1145 83.0614 61.4216 83.0614 63.2486V67.6403C83.0614 68.5186 83.2691 69.1583 83.6846 69.5595C83.8605 69.7293 84 69.9468 84 70.1912C84 70.5682 83.6934 70.8797 83.3181 70.844C82.7383 70.7888 82.2951 70.6574 81.9887 70.4496ZM80.9607 65.4469C80.9607 64.9743 80.6304 64.5619 80.1653 64.4781C79.8587 64.4229 79.6508 64.3953 79.5416 64.3953C78.4689 64.3953 77.5936 64.682 76.9157 65.2553C76.2378 65.8286 75.8989 66.4975 75.8989 67.2619C75.8989 68.5462 76.6326 69.1883 78.1002 69.1883C79.056 69.1883 79.9317 68.7546 80.7271 67.8873C80.8831 67.7172 80.9607 67.4913 80.9607 67.2605V65.4469Z" fill="#FFB9C6"/>
<path d="M10.4196 69.6675C10.4196 70.2198 9.97191 70.6675 9.41963 70.6675H9.29658C8.7443 70.6675 8.29658 70.2198 8.29658 69.6675V67.1454C8.29658 66.4908 7.67661 66.0127 7.02847 66.1047C6.4404 66.1882 5.83138 66.2299 5.2014 66.2299C3.89032 66.2299 2.86232 65.8439 2.11739 65.0718C1.37246 64.2997 1 63.176 1 61.7007V59.3868C1 58.8346 1.44772 58.3868 2 58.3868H2.12305C2.67533 58.3868 3.12305 58.8346 3.12305 59.3868V61.6548C3.12305 62.5645 3.34653 63.2563 3.79348 63.7302C4.24789 64.2042 4.90343 64.4412 5.7601 64.4412C6.3502 64.4412 6.93854 64.3976 7.5251 64.3106C7.99091 64.2414 8.31893 63.8298 8.31893 63.3589V59.3868C8.31893 58.8346 8.76664 58.3868 9.31893 58.3868H9.41963C9.97191 58.3868 10.4196 58.8346 10.4196 59.3868V69.6675Z" stroke="black" stroke-width="2" mask="url(#path-1-outside-1)"/>
<path d="M20.9343 70.4496C20.415 70.0911 19.5117 69.9142 18.968 70.2346C18.2187 70.6761 17.2949 70.8968 16.1966 70.8968C15.2505 70.8968 14.4348 70.5452 13.7495 69.8419C13.0641 69.1386 12.7215 68.271 12.7215 67.239C12.7215 65.993 13.2466 64.9419 14.297 64.0857C15.3548 63.2295 16.7106 62.8014 18.3643 62.8014C18.4306 62.8014 18.4981 62.8034 18.5669 62.8073C19.2433 62.8457 19.9286 62.3702 19.7281 61.7231C19.3918 60.6379 18.5796 60.0954 17.2916 60.0954C16.5312 60.0954 15.8671 60.2215 15.2993 60.4738C14.7149 60.7335 13.9357 60.6112 13.6527 60.0378C13.4659 59.6592 13.556 59.1967 13.9249 58.9916C14.2129 58.8315 14.5567 58.6796 14.9562 58.5359C15.6863 58.276 16.3902 58.146 17.0681 58.146C18.7517 58.146 19.9957 58.5397 20.8002 59.3271C21.6047 60.1145 22.007 61.4216 22.007 63.2486V67.6403C22.007 68.5186 22.2147 69.1583 22.6302 69.5595C22.8061 69.7293 22.9456 69.9468 22.9456 70.1912C22.9456 70.5682 22.639 70.8797 22.2637 70.844C21.6839 70.7888 21.2408 70.6574 20.9343 70.4496ZM19.9063 65.4469C19.9063 64.9743 19.576 64.5619 19.1109 64.4781C18.8043 64.4229 18.5964 64.3953 18.4872 64.3953C17.4145 64.3953 16.5392 64.682 15.8613 65.2553C15.1834 65.8286 14.8445 66.4975 14.8445 67.2619C14.8445 68.5462 15.5783 69.1883 17.0458 69.1883C18.0016 69.1883 18.8773 68.7546 19.6727 67.8873C19.8287 67.7172 19.9063 67.4913 19.9063 67.2605V65.4469Z" stroke="black" stroke-width="2" mask="url(#path-1-outside-1)"/>
<path d="M35.2705 69.6675C35.2705 70.2198 34.8227 70.6675 34.2705 70.6675H34.1474C33.5951 70.6675 33.1474 70.2198 33.1474 69.6675V64.9727C33.1474 64.0435 31.9906 63.6166 31.3871 64.3231L25.7817 70.8847C25.7192 70.9579 25.6278 71 25.5316 71C25.35 71 25.2027 70.8528 25.2027 70.6711V59.3868C25.2027 58.8346 25.6505 58.3868 26.2027 58.3868H26.337C26.8893 58.3868 27.337 58.8346 27.337 59.3868V64.0785C27.337 65.0081 28.4945 65.4348 29.0978 64.7275L34.6915 58.1697C34.754 58.0965 34.8454 58.0543 34.9417 58.0543C35.1233 58.0543 35.2705 58.2015 35.2705 58.3831V69.6675ZM33.6028 52.2475C34.0761 52.3585 34.3821 52.8313 34.222 53.2904C33.5998 55.0751 32.3402 55.9674 30.4433 55.9674C28.5739 55.9674 27.325 55.0948 26.6965 53.3495C26.5201 52.8594 26.8484 52.3518 27.3554 52.2324C27.8913 52.1063 28.405 52.4658 28.6083 52.9774C28.9719 53.8929 29.5836 54.3506 30.4433 54.3506C31.4101 54.3506 32.0671 53.8931 32.4145 52.978C32.6017 52.4849 33.0892 52.1271 33.6028 52.2475Z" stroke="black" stroke-width="2" mask="url(#path-1-outside-1)"/>
<path d="M47.0607 69.0809C47.5396 69.7421 47.0672 70.6675 46.2508 70.6675H46.115C45.7768 70.6675 45.4615 70.4966 45.277 70.2132L43.3616 67.2721C42.964 66.6615 42.0678 66.6675 41.6784 67.2834L39.8333 70.2019C39.65 70.4917 39.331 70.6675 38.988 70.6675H38.9444C38.1334 70.6675 37.6597 69.7529 38.1277 69.0905L41.0605 64.9391C41.3012 64.5983 41.3051 64.1438 41.0701 63.799L38.4474 59.9499C37.9951 59.2861 38.4705 58.3868 39.2738 58.3868H39.3177C39.6637 58.3868 39.9851 58.5657 40.1675 58.8597L41.73 61.3784C42.1152 61.9994 43.0146 62.0109 43.4157 61.4001L45.1075 58.8233C45.2863 58.5509 45.5903 58.3868 45.9161 58.3868C46.703 58.3868 47.1606 59.2764 46.7031 59.9166L44.0023 63.6953C43.7523 64.0449 43.7538 64.5152 44.0059 64.8633L47.0607 69.0809Z" stroke="black" stroke-width="2" mask="url(#path-1-outside-1)"/>
<path d="M57.4284 70.4496C56.9091 70.0911 56.0058 69.9142 55.4621 70.2346C54.7127 70.6761 53.7889 70.8968 52.6906 70.8968C51.7446 70.8968 50.9289 70.5452 50.2435 69.8419C49.5582 69.1386 49.2155 68.271 49.2155 67.239C49.2155 65.993 49.7407 64.9419 50.7911 64.0857C51.8489 63.2295 53.2046 62.8014 54.8584 62.8014C54.9246 62.8014 54.9922 62.8034 55.061 62.8073C55.7373 62.8457 56.4227 62.3702 56.2221 61.7231C55.8859 60.6379 55.0737 60.0954 53.7857 60.0954C53.0253 60.0954 52.3612 60.2215 51.7934 60.4738C51.209 60.7335 50.4298 60.6112 50.1468 60.0378C49.96 59.6592 50.0501 59.1967 50.419 58.9916C50.707 58.8315 51.0507 58.6796 51.4503 58.5359C52.1804 58.276 52.8843 58.146 53.5622 58.146C55.2457 58.146 56.4898 58.5397 57.2943 59.3271C58.0988 60.1145 58.5011 61.4216 58.5011 63.2486V67.6403C58.5011 68.5186 58.7088 69.1583 59.1243 69.5595C59.3002 69.7293 59.4397 69.9468 59.4397 70.1912C59.4397 70.5682 59.1331 70.8797 58.7578 70.844C58.178 70.7888 57.7348 70.6574 57.4284 70.4496ZM56.4004 65.4469C56.4004 64.9743 56.0701 64.5619 55.605 64.4781C55.2984 64.4229 55.0905 64.3953 54.9813 64.3953C53.9086 64.3953 53.0333 64.682 52.3554 65.2553C51.6775 65.8286 51.3386 66.4975 51.3386 67.2619C51.3386 68.5462 52.0723 69.1883 53.5398 69.1883C54.4957 69.1883 55.3714 68.7546 56.1668 67.8873C56.3228 67.7172 56.4004 67.4913 56.4004 67.2605V65.4469Z" stroke="black" stroke-width="2" mask="url(#path-1-outside-1)"/>
<path d="M71.474 69.6675C71.474 70.2198 71.0263 70.6675 70.474 70.6675H70.3398C69.7875 70.6675 69.3398 70.2198 69.3398 69.6675V66.1291C69.3398 65.5769 68.8921 65.1291 68.3398 65.1291H64.831C64.2788 65.1291 63.831 65.5769 63.831 66.1291V69.6675C63.831 70.2198 63.3833 70.6675 62.831 70.6675H62.6968C62.1445 70.6675 61.6968 70.2198 61.6968 69.6675V59.3868C61.6968 58.8346 62.1445 58.3868 62.6968 58.3868H62.831C63.3833 58.3868 63.831 58.8346 63.831 59.3868V62.3174C63.831 62.8697 64.2788 63.3174 64.831 63.3174H68.3398C68.8921 63.3174 69.3398 62.8697 69.3398 62.3174V59.3868C69.3398 58.8346 69.7875 58.3868 70.3398 58.3868H70.474C71.0263 58.3868 71.474 58.8346 71.474 59.3868V69.6675Z" stroke="black" stroke-width="2" mask="url(#path-1-outside-1)"/>
<path d="M81.9887 70.4496C81.4694 70.0911 80.5661 69.9142 80.0224 70.2346C79.2731 70.6761 78.3492 70.8968 77.2509 70.8968C76.3049 70.8968 75.4892 70.5452 74.8038 69.8419C74.1185 69.1386 73.7758 68.271 73.7758 67.239C73.7758 65.993 74.301 64.9419 75.3514 64.0857C76.4092 63.2295 77.7649 62.8014 79.4187 62.8014C79.485 62.8014 79.5525 62.8034 79.6213 62.8073C80.2976 62.8457 80.983 62.3702 80.7824 61.7231C80.4462 60.6379 79.634 60.0954 78.346 60.0954C77.5856 60.0954 76.9215 60.2215 76.3537 60.4738C75.7693 60.7335 74.9901 60.6112 74.7071 60.0378C74.5203 59.6592 74.6104 59.1967 74.9793 58.9916C75.2673 58.8315 75.6111 58.6796 76.0106 58.5359C76.7407 58.276 77.4446 58.146 78.1225 58.146C79.806 58.146 81.0501 58.5397 81.8546 59.3271C82.6591 60.1145 83.0614 61.4216 83.0614 63.2486V67.6403C83.0614 68.5186 83.2691 69.1583 83.6846 69.5595C83.8605 69.7293 84 69.9468 84 70.1912C84 70.5682 83.6934 70.8797 83.3181 70.844C82.7383 70.7888 82.2951 70.6574 81.9887 70.4496ZM80.9607 65.4469C80.9607 64.9743 80.6304 64.5619 80.1653 64.4781C79.8587 64.4229 79.6508 64.3953 79.5416 64.3953C78.4689 64.3953 77.5936 64.682 76.9157 65.2553C76.2378 65.8286 75.8989 66.4975 75.8989 67.2619C75.8989 68.5462 76.6326 69.1883 78.1002 69.1883C79.056 69.1883 79.9317 68.7546 80.7271 67.8873C80.8831 67.7172 80.9607 67.4913 80.9607 67.2605V65.4469Z" stroke="black" stroke-width="2" mask="url(#path-1-outside-1)"/>
<path d="M17.5322 50.2527C17.5322 50.5841 17.3017 50.8466 16.9704 50.8481C16.95 50.8482 16.9291 50.8482 16.9077 50.8482C16.2044 50.8482 15.6896 50.6778 15.3633 50.3369C15.0369 49.9907 14.7978 49.3995 14.6459 48.5632C14.4434 47.4181 14.027 46.5846 13.3969 46.0626C12.7668 45.5353 11.8863 45.2716 10.7554 45.2716C10.7181 45.2716 10.6879 45.3019 10.6879 45.3392V49.9244C10.6879 50.3905 10.31 50.7683 9.84394 50.7683C9.37784 50.7683 9 50.3905 9 49.9244V39.9158C9 39.4497 9.37784 39.0719 9.84394 39.0719C10.31 39.0719 10.6879 39.4497 10.6879 39.9158V43.7531C10.6879 43.8417 10.7597 43.9134 10.8482 43.9134C11.9003 43.9134 12.7443 43.6844 13.38 43.2264C14.0214 42.763 14.4209 42.0919 14.5784 41.213C14.7191 40.4301 14.9469 39.8655 15.262 39.5193C15.5827 39.1731 16.0806 39 16.7558 39C16.7717 39 16.7876 39.0001 16.8034 39.0002C17.1168 39.003 17.3465 39.2715 17.3465 39.585V40.0673C17.3465 40.2421 17.1753 40.3981 17.0005 40.3981C16.7867 40.3981 16.6207 40.4674 16.5026 40.6059C16.3901 40.739 16.2832 41.0399 16.1819 41.5087C16.0244 42.2597 15.6896 42.9095 15.1776 43.4581C14.7171 43.9467 14.6965 45.2679 15.1593 45.7544C15.7496 46.3749 16.1439 47.1834 16.3422 48.1798C16.4491 48.7124 16.5645 49.0533 16.6882 49.2024C16.8177 49.3515 16.978 49.4261 17.1693 49.4261C17.3599 49.4261 17.5322 49.5683 17.5322 49.7589V50.2527Z" fill="white"/>
<path d="M27.0602 49.9666C27.0602 50.4094 26.7013 50.7683 26.2585 50.7683C25.8157 50.7683 25.4567 50.4094 25.4567 49.9666V48.7396C25.4567 47.3753 23.7831 46.7195 22.8561 47.7205L19.8942 50.919C19.8464 50.9707 19.7793 51 19.7089 51C19.5694 51 19.4564 50.8869 19.4564 50.7474V43.0177C19.4564 42.5726 19.8172 42.2117 20.2623 42.2117C20.7074 42.2117 21.0683 42.5726 21.0683 43.0177V44.2362C21.0683 45.601 22.743 46.2566 23.6696 45.2545L26.6224 42.0611C26.6701 42.0094 26.7373 41.98 26.8077 41.98C26.9472 41.98 27.0602 42.0931 27.0602 42.2325V49.9666Z" fill="white"/>
<path d="M40.1665 49.2683C40.1665 50.0967 39.4949 50.7683 38.6665 50.7683H30.8473C30.0188 50.7683 29.3473 50.0967 29.3473 49.2683V42.9713C29.3473 42.5518 29.6873 42.2117 30.1068 42.2117C30.5263 42.2117 30.8664 42.5518 30.8664 42.9713V48.0379C30.8664 48.8664 31.5379 49.5379 32.3664 49.5379H32.4974C33.3258 49.5379 33.9974 48.8664 33.9974 48.0379V42.9713C33.9974 42.5518 34.3374 42.2117 34.7569 42.2117C35.1764 42.2117 35.5164 42.5518 35.5164 42.9713V48.0379C35.5164 48.8664 36.188 49.5379 37.0164 49.5379H37.1474C37.9759 49.5379 38.6474 48.8664 38.6474 48.0379V42.9713C38.6474 42.5518 38.9875 42.2117 39.407 42.2117C39.8265 42.2117 40.1665 42.5518 40.1665 42.9713V49.2683Z" fill="white"/>
<path d="M52.7716 50.7683C52.396 50.7683 52.0728 50.5025 52.0004 50.1339L51.6961 48.5855C51.4018 47.0882 49.32 46.9355 48.8104 48.3738L47.9771 50.7258C47.9341 50.847 47.8194 50.9281 47.6908 50.9281C47.5616 50.9281 47.4465 50.8464 47.4039 50.7244L46.6201 48.4773C46.1151 47.0297 44.0199 47.1828 43.7307 48.6885L43.4536 50.1312C43.3826 50.501 43.0591 50.7683 42.6825 50.7683C42.1852 50.7683 41.8132 50.312 41.9134 49.8249L44.0451 39.4586C44.0914 39.2335 44.2895 39.0719 44.5193 39.0719C44.7272 39.0719 44.9119 39.2046 44.9782 39.4016L46.3108 43.3606C46.7697 44.7238 48.6985 44.7221 49.1549 43.358L50.481 39.3949C50.5456 39.202 50.7263 39.0719 50.9297 39.0719C51.154 39.0719 51.3475 39.2294 51.393 39.4491L53.5412 49.823C53.6423 50.3108 53.2698 50.7683 52.7716 50.7683Z" fill="white"/>
<path d="M62.8937 49.9666C62.8937 50.4094 62.5347 50.7683 62.0919 50.7683C61.6492 50.7683 61.2902 50.4094 61.2902 49.9666V48.7396C61.2902 47.3753 59.6166 46.7194 58.6896 47.7205L55.7277 50.919C55.6799 50.9707 55.6127 51 55.5424 51C55.4029 51 55.2898 50.8869 55.2898 50.7474V43.0177C55.2898 42.5726 55.6507 42.2117 56.0958 42.2117C56.5409 42.2117 56.9018 42.5726 56.9018 43.0177V44.2362C56.9018 45.601 58.5765 46.2566 59.5031 45.2545L62.4558 42.0611C62.5036 42.0094 62.5708 41.98 62.6412 41.98C62.7807 41.98 62.8937 42.0931 62.8937 42.2325V49.9666Z" fill="white"/>
<path d="M76 49.2683C76 50.0967 75.3284 50.7683 74.5 50.7683H66.6808C65.8523 50.7683 65.1808 50.0967 65.1808 49.2683V42.9713C65.1808 42.5518 65.5208 42.2117 65.9403 42.2117C66.3598 42.2117 66.6998 42.5518 66.6998 42.9713V48.0379C66.6998 48.8664 67.3714 49.5379 68.1998 49.5379H68.3308C69.1593 49.5379 69.8308 48.8664 69.8308 48.0379V42.9713C69.8308 42.5518 70.1709 42.2117 70.5904 42.2117C71.0099 42.2117 71.3499 42.5518 71.3499 42.9713V48.0379C71.3499 48.8664 72.0215 49.5379 72.8499 49.5379H72.9809C73.8093 49.5379 74.4809 48.8664 74.4809 48.0379V42.9713C74.4809 42.5518 74.821 42.2117 75.2405 42.2117C75.6599 42.2117 76 42.5518 76 42.9713V49.2683Z" fill="white"/>
<path fill-rule="evenodd" clip-rule="evenodd" d="M29.6234 12.1255C28.4365 11.1352 27.2674 9.78252 26.8418 8.09367C25.8609 4.20234 29.1981 0 29.1981 0C29.1981 0 34.1255 2.10676 35.1063 5.9981C35.8579 8.97994 34.074 12.1444 33.1991 13.4607C34.2616 12.6715 35.5765 12.2048 37.0002 12.2048C40.5312 12.2048 43.3936 15.0758 43.3936 18.6174C43.3936 22.1589 40.5312 25.0299 37.0002 25.0299C33.4692 25.0299 30.6068 22.1589 30.6068 18.6174C30.6068 17.1689 31.0856 15.8326 31.8931 14.759C30.6896 14.0654 29.5392 13.7385 28.4 13.7359C26.7635 13.7322 25.0113 14.397 23.0169 15.8836L22 14.5111C24.1724 12.8918 26.2767 12.021 28.4039 12.0259C28.8145 12.0268 29.2208 12.0604 29.6234 12.1255ZM33.4534 6.41721C33.8011 7.79673 33.4002 9.37893 32.7496 10.7839C32.5651 11.1825 32.3702 11.5456 32.1872 11.8592C31.8776 11.6705 31.5341 11.4439 31.1829 11.1812C29.9448 10.2551 28.8424 9.05407 28.4947 7.67456C28.1469 6.29504 28.5478 4.71284 29.1984 3.30787C29.383 2.90925 29.5778 2.54619 29.7608 2.23258C30.0704 2.42129 30.4139 2.64785 30.7652 2.9106C32.0033 3.83668 33.1057 5.0377 33.4534 6.41721ZM33.1641 18.6174C33.1641 16.4924 34.8816 14.7698 37.0002 14.7698C39.1188 14.7698 40.8362 16.4924 40.8362 18.6174C40.8362 20.7423 39.1188 22.4649 37.0002 22.4649C34.8816 22.4649 33.1641 20.7423 33.1641 18.6174Z" fill="white"/>
<path fill-rule="evenodd" clip-rule="evenodd" d="M43.8198 1.08974C40.2888 1.08974 37.4264 3.96074 37.4264 7.50229C37.4264 11.0438 40.2888 13.9148 43.8198 13.9148C47.3508 13.9148 50.2132 11.0438 50.2132 7.50229C50.2132 3.96074 47.3508 1.08974 43.8198 1.08974ZM39.9838 7.50229C39.9838 5.37736 41.7012 3.65476 43.8198 3.65476C45.9384 3.65476 47.6558 5.37736 47.6558 7.50229C47.6558 9.62722 45.9384 11.3498 43.8198 11.3498C41.7012 11.3498 39.9838 9.62722 39.9838 7.50229Z" fill="white"/>
<path fill-rule="evenodd" clip-rule="evenodd" d="M24.6396 30.5875C24.6396 27.0459 27.502 24.1749 31.033 24.1749C34.564 24.1749 37.4264 27.0459 37.4264 30.5875C37.4264 34.129 34.564 37 31.033 37C27.502 37 24.6396 34.129 24.6396 30.5875ZM31.033 26.7399C28.9144 26.7399 27.197 28.4625 27.197 30.5875C27.197 32.7124 28.9144 34.435 31.033 34.435C33.1516 34.435 34.869 32.7124 34.869 30.5875C34.869 28.4625 33.1516 26.7399 31.033 26.7399Z" fill="white"/>
<path fill-rule="evenodd" clip-rule="evenodd" d="M50.2132 30.5875C50.2132 34.129 47.3508 37 43.8198 37C40.2888 37 37.4264 34.129 37.4264 30.5875C37.4264 27.0459 40.2888 24.1749 43.8198 24.1749C47.3508 24.1749 50.2132 27.0459 50.2132 30.5875ZM43.8198 26.7399C41.7012 26.7399 39.9838 28.4625 39.9838 30.5875C39.9838 32.7124 41.7012 34.435 43.8198 34.435C45.9384 34.435 47.6558 32.7124 47.6558 30.5875C47.6558 28.4625 45.9384 26.7399 43.8198 26.7399Z" fill="white"/>
<path fill-rule="evenodd" clip-rule="evenodd" d="M50.2132 30.5875C50.2132 27.0459 53.0756 24.1749 56.6066 24.1749C60.1376 24.1749 63 27.0459 63 30.5875C63 34.129 60.1376 37 56.6066 37C53.0756 37 50.2132 34.129 50.2132 30.5875ZM52.7706 30.5875C52.7706 28.4625 54.488 26.7399 56.6066 26.7399C58.7252 26.7399 60.4426 28.4625 60.4426 30.5875C60.4426 32.7124 58.7252 34.435 56.6066 34.435C54.488 34.435 52.7706 32.7124 52.7706 30.5875Z" fill="white"/>
<path fill-rule="evenodd" clip-rule="evenodd" d="M50.6394 12.2048C47.1085 12.2048 44.246 15.0758 44.246 18.6174C44.246 22.1589 47.1085 25.0299 50.6394 25.0299C54.1704 25.0299 57.0328 22.1589 57.0328 18.6174C57.0328 15.0758 54.1704 12.2048 50.6394 12.2048ZM46.8034 18.6174C46.8034 16.4924 48.5208 14.7698 50.6394 14.7698C52.758 14.7698 54.4755 16.4924 54.4755 18.6174C54.4755 20.7423 52.758 22.4649 50.6394 22.4649C48.5208 22.4649 46.8034 20.7423 46.8034 18.6174Z" fill="white"/>
</svg>
