<svg width="106" height="80" viewBox="0 0 106 80" fill="none" xmlns="http://www.w3.org/2000/svg">
<path d="M38.2775 71.1082C16.9775 58.8082 6.94748 36.2982 15.8775 20.8282C24.8075 5.35822 49.3175 2.78822 70.6175 15.0882C75.9975 18.1882 80.6475 21.9482 84.4675 26.0782C79.6175 19.4482 72.9375 13.3782 64.7675 8.65823C40.9975 -5.06177 13.6475 -2.16177 3.65748 15.1282C-6.33252 32.4182 4.84747 57.5682 28.6075 71.2882C42.6575 79.3982 57.9575 81.6982 70.1875 78.6582C60.3075 79.6682 48.8975 77.2282 38.2775 71.1082Z" fill="#F8B500"/>
<path d="M29.6274 29.8984H33.5674V52.1284H29.6274V29.8984Z" fill="#F8B500"/>
<path d="M36.8374 29.8984H40.8874L47.7974 42.3984L50.0974 47.1484H50.2374C50.0474 44.8484 49.7374 42.0384 49.7374 39.5584V29.8984H53.4874V52.1284H49.4374L42.5274 39.6084L40.2274 34.8784H40.0874C40.2774 37.2284 40.5874 39.9084 40.5874 42.3884V52.1284H36.8374V29.8984Z" fill="#F8B500"/>
<path d="M61.2474 33.2082H54.8274V29.8882H71.6074V33.2082H65.1874V52.1282H61.2474V33.2082Z" fill="#F8B500"/>
<path d="M72.9375 29.8984H86.3175V33.2184H76.8775V38.9184H84.8775V42.2384H76.8775V48.8184H86.6575V52.1384H72.9375V29.8984Z" fill="#F8B500"/>
<path d="M88.8574 29.8984H96.3474C100.967 29.8984 104.537 31.5284 104.537 36.4984C104.537 41.2784 100.977 43.4484 96.3474 43.4484H92.7974V52.1384H88.8574V29.8984ZM95.9374 40.2884C98.9874 40.2884 100.647 39.0284 100.647 36.4984C100.647 33.9384 98.9874 33.0584 95.9374 33.0584H92.7974V40.2884H95.9374ZM95.6074 42.3884L98.4674 40.0384L105.407 52.1384H100.977L95.6074 42.3884Z" fill="#F8B500"/>
<path d="M55.8705 65.6862C55.4272 66.4082 54.8509 66.9846 54.1415 67.4152C53.4322 67.8459 52.5519 68.0612 51.5005 68.0612C50.8039 68.0612 50.1579 67.9346 49.5625 67.6812C48.9799 67.4279 48.4732 67.0796 48.0425 66.6362C47.6245 66.1929 47.2952 65.6736 47.0545 65.0782C46.8265 64.4829 46.7125 63.8369 46.7125 63.1402C46.7125 62.4562 46.8265 61.8229 47.0545 61.2402C47.2952 60.6449 47.6245 60.1319 48.0425 59.7012C48.4732 59.2579 48.9799 58.9096 49.5625 58.6562C50.1579 58.4029 50.8039 58.2762 51.5005 58.2762C52.6025 58.2762 53.4955 58.4979 54.1795 58.9412C54.8762 59.3719 55.4399 59.9482 55.8705 60.6702L55.1485 61.1642C54.7812 60.5562 54.3125 60.0749 53.7425 59.7202C53.1725 59.3656 52.4252 59.1882 51.5005 59.1882C50.9305 59.1882 50.4049 59.2896 49.9235 59.4922C49.4549 59.6949 49.0495 59.9736 48.7075 60.3282C48.3655 60.6829 48.0995 61.1072 47.9095 61.6012C47.7322 62.0826 47.6435 62.6019 47.6435 63.1592C47.6435 63.7166 47.7385 64.2422 47.9285 64.7362C48.1185 65.2176 48.3845 65.6419 48.7265 66.0092C49.0685 66.3639 49.4739 66.6426 49.9425 66.8452C50.4239 67.0479 50.9495 67.1492 51.5195 67.1492C52.4442 67.1492 53.1852 66.9782 53.7425 66.6362C54.3125 66.2816 54.7812 65.8002 55.1485 65.1922L55.8705 65.6862ZM57.0171 67.9282V54.9132H57.9481V67.9282H57.0171ZM59.4663 55.9202V54.9132H60.3973V55.9202H59.4663ZM59.4663 67.9282V58.4282H60.3973V67.9282H59.4663ZM62.8465 59.8152C63.0745 59.4226 63.4292 59.0679 63.9105 58.7512C64.4045 58.4346 65.0442 58.2762 65.8295 58.2762C66.5642 58.2762 67.1975 58.4472 67.7295 58.7892C68.2742 59.1186 68.6795 59.5872 68.9455 60.1952C69.0722 59.9546 69.2305 59.7202 69.4205 59.4922C69.6232 59.2642 69.8575 59.0616 70.1235 58.8842C70.4022 58.6942 70.7189 58.5486 71.0735 58.4472C71.4282 58.3332 71.8272 58.2762 72.2705 58.2762C73.3219 58.2762 74.1579 58.6119 74.7785 59.2832C75.4119 59.9419 75.7285 60.8349 75.7285 61.9622V67.9282H74.7975V62.0382C74.7975 61.1262 74.5632 60.4232 74.0945 59.9292C73.6385 59.4226 72.9989 59.1692 72.1755 59.1692C71.3142 59.1692 70.6175 59.4289 70.0855 59.9482C69.5535 60.4676 69.2875 61.2022 69.2875 62.1522V67.9282H68.3565V62.0382C68.3565 61.1262 68.1222 60.4232 67.6535 59.9292C67.1975 59.4226 66.5579 59.1692 65.7345 59.1692C64.8605 59.1692 64.1575 59.4416 63.6255 59.9862C63.1062 60.5309 62.8465 61.2972 62.8465 62.2852V67.9282H61.9155V58.4282H62.8465V59.8152ZM81.8587 59.1692C81.2887 59.1692 80.7567 59.2706 80.2627 59.4732C79.7814 59.6759 79.3634 59.9609 79.0087 60.3282C78.6667 60.6829 78.3944 61.1072 78.1917 61.6012C77.989 62.0826 77.8877 62.6082 77.8877 63.1782C77.8877 63.7356 77.989 64.2612 78.1917 64.7552C78.3944 65.2366 78.6667 65.6609 79.0087 66.0282C79.3634 66.3829 79.7814 66.6616 80.2627 66.8642C80.7567 67.0669 81.2887 67.1682 81.8587 67.1682C82.416 67.1682 82.9354 67.0669 83.4167 66.8642C83.9107 66.6616 84.335 66.3829 84.6897 66.0282C85.0444 65.6609 85.323 65.2366 85.5257 64.7552C85.7284 64.2739 85.8297 63.7482 85.8297 63.1782C85.8297 62.6082 85.7284 62.0826 85.5257 61.6012C85.323 61.1072 85.0444 60.6829 84.6897 60.3282C84.335 59.9609 83.9107 59.6759 83.4167 59.4732C82.9354 59.2706 82.416 59.1692 81.8587 59.1692ZM85.7727 66.0472C85.38 66.6426 84.848 67.1302 84.1767 67.5102C83.5054 67.8776 82.7137 68.0612 81.8017 68.0612C81.1177 68.0612 80.478 67.9346 79.8827 67.6812C79.3 67.4279 78.787 67.0859 78.3437 66.6552C77.913 66.2119 77.571 65.6926 77.3177 65.0972C77.077 64.5019 76.9567 63.8559 76.9567 63.1592C76.9567 62.4752 77.077 61.8356 77.3177 61.2402C77.571 60.6449 77.913 60.1319 78.3437 59.7012C78.787 59.2579 79.3 58.9096 79.8827 58.6562C80.478 58.4029 81.1177 58.2762 81.8017 58.2762C82.7137 58.2762 83.499 58.4599 84.1577 58.8272C84.829 59.1946 85.3674 59.6632 85.7727 60.2332V58.4282H86.7037V67.9282H85.7727V66.0472ZM92.8241 58.4282V59.2642H90.1831V65.0402C90.1831 65.4456 90.2401 65.7749 90.3541 66.0282C90.4807 66.2816 90.6327 66.4842 90.8101 66.6362C91.0001 66.7882 91.2027 66.8959 91.4181 66.9592C91.6461 67.0099 91.8677 67.0352 92.0831 67.0352H92.8051V67.9282H92.0641C91.7347 67.9282 91.4054 67.8839 91.0761 67.7952C90.7467 67.6939 90.4491 67.5292 90.1831 67.3012C89.9171 67.0732 89.6954 66.7756 89.5181 66.4082C89.3534 66.0409 89.2711 65.5849 89.2711 65.0402V59.2642H87.8461V58.4282H89.2711V55.6732H90.1831V58.4282H92.8241ZM102.335 65.6862C101.892 66.4082 101.316 66.9846 100.606 67.4152C99.9098 67.8459 99.0232 68.0612 97.9465 68.0612C97.2245 68.0612 96.5595 67.9346 95.9515 67.6812C95.3562 67.4279 94.8368 67.0859 94.3935 66.6552C93.9628 66.2119 93.6208 65.6926 93.3675 65.0972C93.1268 64.5019 93.0065 63.8559 93.0065 63.1592C93.0065 62.4752 93.1268 61.8356 93.3675 61.2402C93.6208 60.6449 93.9628 60.1319 94.3935 59.7012C94.8368 59.2579 95.3498 58.9096 95.9325 58.6562C96.5278 58.4029 97.1738 58.2762 97.8705 58.2762C98.5798 58.2762 99.2258 58.4029 99.8085 58.6562C100.404 58.9096 100.91 59.2452 101.328 59.6632C101.759 60.0812 102.088 60.5689 102.316 61.1262C102.557 61.6836 102.677 62.2662 102.677 62.8742C102.677 63.0262 102.671 63.1529 102.658 63.2542C102.658 63.3556 102.652 63.4379 102.639 63.5012H93.9945C94.0325 64.0839 94.1592 64.6032 94.3745 65.0592C94.6025 65.5026 94.8938 65.8826 95.2485 66.1992C95.6158 66.5032 96.0275 66.7376 96.4835 66.9022C96.9395 67.0669 97.4272 67.1492 97.9465 67.1492C98.8838 67.1492 99.6375 66.9782 100.207 66.6362C100.777 66.2816 101.246 65.8002 101.613 65.1922L102.335 65.6862ZM97.8705 59.1692C97.3892 59.1692 96.9268 59.2516 96.4835 59.4162C96.0402 59.5809 95.6412 59.8152 95.2865 60.1192C94.9445 60.4106 94.6532 60.7716 94.4125 61.2022C94.1845 61.6329 94.0452 62.1142 93.9945 62.6462H101.708C101.658 62.1142 101.518 61.6329 101.29 61.2022C101.075 60.7716 100.796 60.4042 100.454 60.1002C100.112 59.7962 99.7198 59.5682 99.2765 59.4162C98.8332 59.2516 98.3645 59.1692 97.8705 59.1692Z" fill="#F8B500"/>
</svg>
